<svg width="110" height="24" viewBox="0 0 110 24" fill="none" xmlns="http://www.w3.org/2000/svg">
<path d="M21.2902 3.29001V17.3545H29.5486V14.6122H24.2904V6.25852C24.2904 4.6456 22.9355 3.29001 21.2902 3.29001ZM34.0004 7.77553H31.1291V17.3558H33.9997L34.0004 7.77553ZM54.7097 13.2269C54.7097 14.1624 54.2903 15.0337 53.0968 15.0337C51.9999 15.0337 51.6129 14.1948 51.6129 13.2593V7.77486H48.7423V14.0658C48.7423 16.0982 49.9999 17.6138 52.0965 17.6138C53.1285 17.6138 54.1613 17.1951 54.8387 16.2272V17.3882H57.5479V7.80795H54.6773V13.2269H54.7097ZM62.9682 7.77553H60.0976V17.3558H62.9682V7.77553ZM94.7099 11.4195L93.9359 11.258C93.097 11.0649 92.7424 10.9034 92.7424 10.4192C92.7424 9.93555 93.2267 9.7417 93.8069 9.7417C94.3553 9.7417 94.9038 9.90381 94.9038 10.7096H97.8068C97.646 8.54822 96.0007 7.54859 93.8069 7.54859C91.6138 7.54859 89.807 8.64548 89.807 10.613C89.807 12.5805 91.2909 13.2256 93.0004 13.5808L93.9359 13.774C94.6458 13.9361 95.0328 14.1293 95.0328 14.6453C95.0328 15.1938 94.5492 15.4518 93.8393 15.4518C93.097 15.4518 92.5168 15.1289 92.5168 14.2583H89.5166C89.6456 16.6453 91.4523 17.6131 93.9359 17.6131C96.2587 17.6131 98.033 16.5487 98.033 14.3873C98.0006 12.4839 96.5816 11.8389 94.7099 11.4195ZM102.13 11.4195C102.484 10.484 103.258 9.87071 104.387 9.87071C105.516 9.87071 106.323 10.4516 106.613 11.4195H102.13ZM109.419 12.4515C109.419 9.70928 107.517 7.54791 104.42 7.54791C101.452 7.54791 99.2907 9.80655 99.2907 12.5805C99.2907 15.3552 101.323 17.6125 104.387 17.6125C106.936 17.6125 108.678 16.2907 109.259 14.2583H106.484C106.065 14.9675 105.42 15.3228 104.42 15.3228C103.129 15.3228 102.259 14.5163 102.032 13.3228H109.419V12.4515ZM82.3226 15.1931C81.6471 15.1918 80.9996 14.9229 80.522 14.4453C80.0443 13.9677 79.7754 13.3202 79.7742 12.6447C79.7756 11.9693 80.0446 11.3219 80.5222 10.8443C80.9998 10.3667 81.6471 10.0977 82.3226 10.0963C82.9981 10.0976 83.6455 10.3664 84.1232 10.8441C84.6008 11.3217 84.8697 11.9692 84.871 12.6447C84.8385 14.0638 83.7099 15.1931 82.3226 15.1931ZM84.9676 8.32195C84.1935 7.83835 83.2905 7.58033 82.3226 7.58033C79.5162 7.58033 77.2258 9.87004 77.2258 12.6771C77.2258 15.4835 79.5162 17.7739 82.3226 17.7739C83.2905 17.7739 84.1935 17.5159 84.9676 17.0316V17.3862H87.7098V7.80593H84.9676V8.32195ZM70.8389 15.1938C70.1634 15.1925 69.516 14.9236 69.0383 14.446C68.5607 13.9683 68.2918 13.3209 68.2906 12.6454C68.292 11.9699 68.5609 11.3226 69.0385 10.845C69.5161 10.3674 70.1635 10.0984 70.8389 10.097C71.5144 10.0982 72.1619 10.3671 72.6395 10.8448C73.1172 11.3224 73.3861 11.9699 73.3873 12.6454C73.3861 13.3209 73.1172 13.9683 72.6395 14.446C72.1619 14.9236 71.5144 15.1925 70.8389 15.1938ZM71.1618 7.58169C70.1199 7.51926 69.084 7.77813 68.194 8.32331V4.70976C68.1942 4.3496 68.1235 3.99293 67.9858 3.66014C67.848 3.32735 67.646 3.02499 67.3913 2.77035C67.1366 2.51571 66.8342 2.31379 66.5014 2.17615C66.1686 2.03851 65.8119 1.96784 65.4517 1.9682V17.3551H68.194V17.0005C68.968 17.4841 69.871 17.7422 70.8389 17.7422C73.7743 17.7422 76.1296 15.2586 75.9033 12.2914C75.7426 9.7748 73.6778 7.74311 71.1618 7.58169ZM32.5482 3.29001C32.3274 3.28839 32.1085 3.33069 31.9043 3.41443C31.7 3.49817 31.5144 3.62169 31.3583 3.77781C31.2021 3.93393 31.0786 4.11953 30.9949 4.32382C30.9111 4.5281 30.8688 4.747 30.8705 4.96778C30.8689 5.1885 30.9113 5.40732 30.9951 5.61153C31.0789 5.81574 31.2024 6.00126 31.3585 6.1573C31.5146 6.31335 31.7002 6.43681 31.9044 6.52051C32.1087 6.60421 32.3275 6.64648 32.5482 6.64487C32.7689 6.6463 32.9876 6.6039 33.1917 6.52013C33.3958 6.43636 33.5813 6.31288 33.7373 6.15686C33.8933 6.00084 34.0168 5.81539 34.1006 5.61127C34.1844 5.40714 34.2267 5.18842 34.2253 4.96778C34.2253 4.06405 33.4837 3.29001 32.5482 3.29001ZM61.516 3.29001C61.2953 3.28848 61.0765 3.33084 60.8722 3.41463C60.668 3.49841 60.4825 3.62195 60.3265 3.77805C60.1704 3.93416 60.047 4.11973 59.9633 4.32397C59.8796 4.52821 59.8373 4.74706 59.8389 4.96778C59.8374 5.18844 59.8797 5.40721 59.9635 5.61137C60.0472 5.81554 60.1707 6.00102 60.3267 6.15706C60.4828 6.3131 60.6682 6.43657 60.8724 6.52031C61.0766 6.60406 61.2953 6.64639 61.516 6.64487C61.7367 6.64639 61.9555 6.60406 62.1597 6.52033C62.3639 6.43659 62.5494 6.31313 62.7055 6.1571C62.8616 6.00107 62.9851 5.81559 63.069 5.61142C63.1528 5.40726 63.1952 5.18847 63.1938 4.96778C63.1938 4.06405 62.4515 3.29001 61.516 3.29001ZM41.0654 15.1938C40.3899 15.1923 39.7426 14.9234 39.265 14.4458C38.7874 13.9682 38.5184 13.3208 38.517 12.6454C38.5182 11.9699 38.7871 11.3224 39.2648 10.8448C39.7424 10.3671 40.3899 10.0982 41.0654 10.097C41.7409 10.0982 42.3883 10.3671 42.866 10.8448C43.3436 11.3224 43.6125 11.9699 43.6138 12.6454C43.6125 13.3209 43.3436 13.9683 42.866 14.446C42.3883 14.9236 41.7409 15.1925 41.0654 15.1938ZM43.6779 7.77486V8.35573C42.7839 7.78909 41.7343 7.51806 40.6777 7.58101C38.1293 7.74244 36.0645 9.7748 35.9038 12.2908C35.7106 15.2586 38.0651 17.7422 40.9681 17.7422C41.8512 17.7359 42.7179 17.5026 43.4848 17.0647V21.1294C43.4865 21.8902 43.7896 22.6193 44.3275 23.1573C44.8655 23.6952 45.5946 23.9982 46.3553 24V7.77553L43.6779 7.77486ZM7.32164 0C11.612 0 14.6122 1.54808 14.6122 2.93541C14.6122 4.32274 11.612 5.87082 7.32232 5.87082C3.032 5.87082 0.0310697 4.32274 0.0310697 2.93541C0.0317451 1.54808 2.9989 0 7.32164 0ZM7.48375 15.8064C5.16162 16.3548 2.74224 16.9357 1.19348 17.9677C0.419441 17.4841 0 16.9357 0 16.419C0 14.0969 3.87088 13.2256 7.61275 12.3867C10.3226 11.7741 13.0648 11.1615 14.6129 9.90313V11.9355C14.6129 14.0969 11 14.9682 7.48375 15.8064ZM7.35542 11.1615C4.51591 11.8065 1.61292 12.4515 0 13.8389V13.387C0 9.35468 4.41933 8.32263 8.70965 7.323C11.8065 6.5807 13.3228 6.2261 14.6129 5.19337V7.452C14.6129 9.51611 10.9041 10.355 7.35542 11.1615ZM14.6129 14.4515C13.0966 15.7415 10.3867 16.3872 7.77418 16.9999C5.87082 17.4524 3.93505 17.9036 2.58014 18.5804C3.80604 19.0329 5.45071 19.3233 7.32232 19.3233C11.5802 19.3233 14.6129 17.8063 14.6129 16.3872V14.4515Z" fill="white"/>
</svg>
