<svg width="254" height="54" viewBox="0 0 254 54" fill="none" xmlns="http://www.w3.org/2000/svg">
<mask id="path-1-outside-1_1487_29305" maskUnits="userSpaceOnUse" x="0" y="0" width="254" height="54" fill="none">
<rect fill="none" width="254" height="54"/>
<path d="M185.567 8.83203C186.044 8.83203 186.465 8.94224 186.84 9.16197C187.212 9.38236 187.505 9.66339 187.718 10.0135L186.97 10.5847C186.618 10.054 186.155 9.78336 185.578 9.78336C185.296 9.78336 185.052 9.85312 184.862 9.99397C184.67 10.1335 184.568 10.3343 184.568 10.5945C184.568 10.8247 184.64 10.9942 184.781 11.1155C184.922 11.2355 185.163 11.3861 185.499 11.5361L186.243 11.8764C186.778 12.1177 187.183 12.3974 187.446 12.6876C187.708 12.9784 187.839 13.3383 187.839 13.7687C187.839 14.3399 187.626 14.8015 187.202 15.151C186.778 15.5018 186.243 15.672 185.597 15.672C185.052 15.672 184.559 15.5429 184.125 15.2918C183.691 15.0408 183.348 14.6913 183.094 14.2394L183.851 13.6696C184.347 14.3705 184.931 14.7206 185.609 14.7206C185.952 14.7206 186.234 14.6411 186.445 14.4709C186.657 14.2994 186.768 14.0797 186.768 13.7993C186.768 13.5698 186.699 13.3885 186.546 13.2588C186.396 13.1277 186.144 12.9784 185.789 12.8186L185.052 12.477C184.559 12.2474 184.174 12.0062 183.903 11.716C183.629 11.4265 183.499 11.0653 183.499 10.6349C183.499 10.1042 183.7 9.67382 184.105 9.34323C184.507 9.012 185.003 8.84181 185.597 8.84181L185.567 8.83203Z"/>
<path d="M192.25 15.5714H191.18V8.96094H192.25V15.5714Z"/>
<path d="M198.011 14.6305C198.386 14.6305 198.68 14.5399 198.879 14.3599C199.082 14.1793 199.182 13.9282 199.182 13.6185C199.182 13.3081 199.082 13.0571 198.879 12.8673C198.68 12.6769 198.396 12.5863 198.022 12.5863H197.111V14.6403H198.022L198.011 14.6305ZM197.111 9.89271V11.6748H197.486C197.822 11.6748 198.074 11.5958 198.256 11.4354C198.436 11.275 198.527 11.0553 198.527 10.7847C198.527 10.5141 198.436 10.2931 198.256 10.1327C198.074 9.97227 197.822 9.89271 197.486 9.89271H197.111ZM199.022 11.9662C199.415 12.096 199.728 12.3059 199.95 12.5961C200.172 12.8876 200.283 13.2371 200.283 13.6478C200.283 14.2093 200.083 14.6696 199.689 15.0302C199.294 15.3914 198.768 15.5707 198.122 15.5707H196.07V8.96094H197.6C198.194 8.96094 198.68 9.12068 199.042 9.45258C199.405 9.78251 199.587 10.2037 199.587 10.7234C199.587 11.2346 199.395 11.6454 199.022 11.9551V11.9662Z"/>
<path d="M207.465 9.9025H204.968V11.5959H207.465V12.5166H204.968V14.6096H207.465V15.561H203.898V8.95117H207.465V9.9025Z"/>
<path d="M212.601 12.0686H213.943C214.317 12.0686 214.609 11.9682 214.821 11.768C215.033 11.5672 215.134 11.3064 215.134 10.9862C215.134 10.6556 215.033 10.3955 214.821 10.1959C214.609 9.99509 214.317 9.89533 213.943 9.89533H212.601V12.0686ZM215.721 15.5629L213.822 13.0088H212.601V15.5629H211.531V8.95312H213.963C214.642 8.95312 215.186 9.14417 215.598 9.51453C216.012 9.8849 216.224 10.3759 216.224 10.9764C216.224 11.4068 216.113 11.7869 215.892 12.1188C215.669 12.4487 215.356 12.6887 214.952 12.8393L216.952 15.5629H215.721Z"/>
<path d="M220.907 15.5616H219.836V8.95117H220.907V15.5616Z"/>
<path d="M226.565 10.8051L225.456 13.5489H227.665L226.565 10.8051ZM228.059 14.4598H225.061L224.587 15.5618H223.445L226.383 8.8418H226.747L229.684 15.5618H228.533L228.059 14.4598Z"/>
<path d="M237.452 8.95199V15.6726H237.087L233.031 11.0953V15.5624H231.961V8.8418H232.333L236.382 13.4094V8.95199H237.452Z"/>
<path d="M187.875 24.9357H184.664V26.9088H187.308V27.8699H184.664V30.5942H183.594V23.9844H187.875V24.9357Z"/>
<path d="M194.687 24.9338H192.25V26.6265H194.687V27.5478H192.25V29.6409H194.687V30.5922H191.18V23.9824H194.687V24.9338Z"/>
<path d="M199.243 24.9442V29.6415H200.251C201.028 29.6415 201.644 29.4211 202.098 28.9804C202.552 28.5402 202.787 27.969 202.787 27.2779C202.787 26.5671 202.564 25.9959 202.108 25.5754C201.654 25.1542 201.038 24.9442 200.261 24.9442H199.243ZM200.271 23.9824C201.373 23.9824 202.251 24.2837 202.907 24.894C203.563 25.5056 203.896 26.2972 203.896 27.2779C203.896 28.2494 203.563 29.0403 202.898 29.6617C202.229 30.2825 201.351 30.5929 200.261 30.5929H198.172V23.9824H200.271Z"/>
<path d="M210.497 24.9338H208.015V26.6265H210.497V27.5478H208.015V29.6409H210.497V30.5922H206.945V23.9824H210.497V24.9338Z"/>
<path d="M215.008 27.0979H216.35C216.724 27.0979 217.015 26.9975 217.227 26.7973C217.439 26.5965 217.541 26.3363 217.541 26.0155C217.541 25.6849 217.439 25.4247 217.227 25.2252C217.015 25.0244 216.724 24.9246 216.35 24.9246H215.008V27.0979ZM218.128 30.5929L216.229 28.0388H215.008V30.5929H213.938V23.9824H216.369C217.048 23.9824 217.593 24.1735 218.005 24.5438C218.418 24.9142 218.63 25.4052 218.63 26.0057C218.63 26.4361 218.52 26.8169 218.298 27.1481C218.076 27.478 217.762 27.718 217.358 27.8686L219.358 30.5929H218.128Z"/>
<path d="M223.877 25.8344L222.768 28.5782H224.978L223.877 25.8344ZM225.371 29.4891H222.373L221.9 30.5917H220.758L223.695 23.8711H224.059L226.997 30.5917H225.845L225.371 29.4891Z"/>
<path d="M230.398 29.6409H233.447V30.5922H229.328V23.9824H230.398V29.6409Z"/>
<path d="M188.961 43.0087C188.949 43.8694 188.706 44.5508 188.204 45.0515C187.698 45.5529 187.042 45.8027 186.243 45.8027C185.426 45.8027 184.77 45.5529 184.265 45.0515C183.76 44.5508 183.508 43.8694 183.508 43.0087V39.0723H184.579V43.0784C184.579 43.6398 184.738 44.0702 185.052 44.3701C185.365 44.6707 185.77 44.8214 186.265 44.8214C186.749 44.8214 187.143 44.6707 187.456 44.3701C187.77 44.0702 187.92 43.6398 187.92 43.0784V39.0723H188.99L188.961 43.0087Z"/>
<path d="M198.171 39.1336V45.8536H197.806L193.75 41.2769V45.7441H192.68V39.0234H193.052L197.101 43.591V39.1336H198.171Z"/>
<path d="M203.008 45.7432H201.938V39.1328H203.008V45.7432Z"/>
<path d="M212.254 39.0781L209.317 45.7981H208.952L206.016 39.0781H207.216L209.135 43.6744L211.054 39.0781H212.254Z"/>
<path d="M218.745 40.0842H216.234V41.7769H218.745V42.6982H216.234V44.7913H218.745V45.7426H215.164V39.1328H218.745V40.0842Z"/>
<path d="M223.445 42.2485H224.787C225.161 42.2485 225.452 42.1481 225.665 41.9479C225.876 41.7471 225.978 41.4869 225.978 41.1661C225.978 40.8355 225.876 40.5754 225.665 40.3758C225.452 40.175 225.161 40.0752 224.787 40.0752H223.445V42.2485ZM226.564 45.7435L224.666 43.1894H223.445V45.7435H222.375V39.133H224.806C225.485 39.133 226.029 39.3241 226.442 39.6945C226.855 40.0648 227.068 40.5558 227.068 41.1563C227.068 41.5867 226.957 41.9668 226.735 42.2987C226.513 42.6287 226.199 42.8686 225.795 43.0192L227.795 45.7435H226.564Z"/>
<path d="M232.451 38.9531C232.926 38.9531 233.348 39.0627 233.723 39.2831C234.095 39.5035 234.388 39.7845 234.601 40.1346L233.854 40.7058C233.501 40.1751 233.038 39.9045 232.46 39.9045C232.179 39.9045 231.935 39.9742 231.745 40.1151C231.553 40.2546 231.452 40.4548 231.452 40.7156C231.452 40.9458 231.523 41.116 231.664 41.2366C231.804 41.3566 232.046 41.5072 232.382 41.6572L233.126 41.9975C233.661 42.2388 234.066 42.5185 234.329 42.8087C234.591 43.0995 234.721 43.4594 234.721 43.8898C234.721 44.461 234.51 44.922 234.085 45.2721C233.661 45.6229 233.126 45.7931 232.48 45.7931C231.935 45.7931 231.442 45.664 231.008 45.4129C230.574 45.1619 230.231 44.8124 229.977 44.3605L230.734 43.7907C231.23 44.4916 231.814 44.8418 232.492 44.8418C232.835 44.8418 233.116 44.7622 233.329 44.592C233.54 44.4205 233.651 44.2001 233.651 43.9204C233.651 43.6902 233.582 43.5096 233.429 43.3799C233.279 43.2488 233.028 43.0995 232.672 42.9397L231.935 42.5981C231.442 42.3679 231.057 42.1273 230.786 41.8371C230.512 41.5476 230.382 41.1864 230.382 40.756C230.382 40.2253 230.583 39.7949 230.988 39.4643C231.39 39.1324 231.886 38.9629 232.48 38.9629L232.451 38.9531Z"/>
<path d="M238.852 45.7432H237.781V39.1328H238.852V45.7432Z"/>
<path d="M245.743 40.0842H244.292V45.7426H243.222V40.0842H241.781V39.1328H245.743V40.0842Z"/>
<path d="M250.981 43.0692V45.7433H249.91V43.079L247.609 39.1328H248.801L250.446 42.0077L252.1 39.1328H253.282L250.981 43.0692Z"/>
<path d="M171.628 45.8524H170.523V9.3418H171.628V45.8524Z"/>
<path d="M43.9704 31.0074V22.8509C46.7865 22.3032 48.9114 19.842 48.9114 16.8878C48.9114 13.5319 46.1685 10.8113 42.7857 10.8113C41.1047 10.8113 39.5814 11.4831 38.475 12.5712L30.7544 7.79964C30.7826 7.56213 30.7972 7.32126 30.7972 7.07648C30.7972 3.72052 28.0549 1 24.6721 1C21.2892 1 18.5469 3.72052 18.5469 7.07648C18.5469 10.4324 21.2892 13.153 24.6721 13.153C26.948 13.153 28.9343 11.9212 29.99 10.0932L37.145 14.5155C36.8334 15.2442 36.6605 16.0462 36.6605 16.8878C36.6605 19.842 38.7854 22.3032 41.601 22.8509V31.0074C38.7854 31.5545 36.6605 34.0163 36.6605 36.9704C36.6605 40.3264 39.4034 43.0464 42.7857 43.0464C46.1685 43.0464 48.9114 40.3264 48.9114 36.9704C48.9114 34.0163 46.7865 31.5545 43.9704 31.0074Z"/>
<path d="M30.8001 26.93C30.8001 23.5741 28.0577 20.8535 24.6749 20.8535C21.2926 20.8535 18.5497 23.5741 18.5497 26.93C18.5497 29.8836 20.6746 32.3426 23.4902 32.8903V40.9619C21.9804 41.2553 20.6696 42.0991 19.7783 43.2739L12.8932 39.0187C13.1242 38.3788 13.2498 37.6897 13.2498 36.971C13.2498 34.0175 11.1255 31.5557 8.30933 31.008V22.8515C11.1255 22.3043 13.2498 19.8426 13.2498 16.889C13.2498 13.5325 10.508 10.8125 7.12518 10.8125C3.74177 10.8125 1 13.5325 1 16.889C1 19.8426 3.12435 22.3043 5.94048 22.8515V31.008C3.12435 31.5557 1 34.0175 1 36.971C1 40.327 3.74177 43.0475 7.12518 43.0475C8.93294 43.0475 10.5582 42.2707 11.6792 41.0345L18.7441 45.4009C18.6173 45.8876 18.5497 46.3985 18.5497 46.9243C18.5497 50.2803 21.2926 53.0008 24.6749 53.0008C28.0577 53.0008 30.8001 50.2803 30.8001 46.9243C30.8001 43.9708 28.6757 41.509 25.8596 40.9619V32.8903C28.6752 32.3426 30.8001 29.8836 30.8001 26.93Z"/>
<path d="M23.0726 52.5934C20.6623 51.8689 18.7809 49.2849 18.7809 46.6989C18.7809 45.2029 18.6946 45.1127 15.2641 43.0235C12.44 41.3035 11.6241 40.9715 11.1216 41.3378C8.33781 43.3673 5.2985 43.3174 3.17157 41.2073C0.0955596 38.1558 0.99498 33.1212 4.90572 31.5001L6.25238 30.9419V22.9941L4.55542 22.062C-0.124416 19.4914 0.345184 13.0848 5.34189 11.3324C9.64679 9.82273 14.1002 14.1075 12.7777 18.4866C12.2916 20.0963 9.93546 22.5331 8.86526 22.5331C8.38104 22.5331 8.27311 23.337 8.27311 26.9434C8.27311 30.5498 8.38104 31.3536 8.86526 31.3536C9.86451 31.3536 12.2386 33.7193 12.7341 35.2087C12.9919 35.9838 13.0958 37.1926 12.965 37.8949C12.7335 39.1366 12.8222 39.2301 16.1771 41.2827L19.6272 43.3937L20.9217 42.4446C21.6336 41.9226 22.5344 41.3843 22.9234 41.2484C23.5367 41.034 23.6281 40.4536 23.6118 36.879L23.5929 32.7569L21.9405 31.952C17.6948 29.8839 17.7545 24.0265 22.044 21.8088C24.1331 20.7287 26.2728 20.8582 28.1408 22.1778C31.6901 24.685 31.1744 30.4595 27.2554 32.0921L25.6596 32.7569L25.6514 40.91L27.1616 41.6446C30.1589 43.1027 31.3223 46.5555 29.8519 49.6294C28.7553 51.922 25.5301 53.3321 23.0726 52.5934Z"/>
<path d="M40.3078 42.2154C35.8586 40.1613 35.7981 33.6591 40.211 31.8207L41.8068 31.1559L41.815 22.697L40.3853 22.1841C39.5039 21.8679 38.5545 21.07 37.9099 20.1037C37.0292 18.7835 36.8923 18.2016 37.0417 16.4141L37.2192 14.2919L30.0549 9.99484L28.9635 11.0042C27.3988 12.4513 26.3238 12.9135 24.5231 12.9135C20.2643 12.9135 17.3679 7.79668 19.5848 4.18955C22.4601 -0.488762 29.7823 0.869606 30.3872 6.19354C30.5828 7.91513 30.6472 7.98047 34.4162 10.2819L38.2465 12.6206L39.974 11.7647C42.1658 10.6788 43.2299 10.6878 45.4379 11.8109C49.7129 13.9857 49.7641 19.867 45.5259 21.9314L43.8735 22.7363L43.8358 31.1953L45.2383 31.6984C49.3101 33.1591 49.8072 39.4823 46.0321 41.7968C44.0554 43.0088 42.3037 43.1369 40.3078 42.2154Z"/>
<path d="M6.03672 42.9183C3.14798 42.3748 1.05469 39.8984 1.05469 37.0246C1.05469 36.6187 1.10562 36.0407 1.16786 35.7402C1.48232 34.2223 2.45018 32.8092 3.77778 31.9297C4.3036 31.5813 5.22001 31.1694 5.39445 31.2031C5.45662 31.2151 5.31739 31.3006 5.08504 31.3931C3.24799 32.1244 1.97694 33.5382 1.4767 35.4066C1.26418 36.2003 1.26383 37.5163 1.47595 38.3125C1.9962 40.2653 3.43487 41.8953 5.20336 42.5356C6.93858 43.1638 8.88091 42.8368 10.7906 41.5949C11.0961 41.3962 11.3604 41.2479 11.378 41.2653C11.4479 41.3347 10.3439 42.1227 9.80652 42.3871C8.69463 42.9342 7.22298 43.1416 6.03672 42.9183Z"/>
<path d="M6.23438 26.9709C6.23437 24.7879 6.24343 23.8846 6.25452 24.9636C6.26557 26.0426 6.26557 27.8286 6.25454 28.9326C6.24348 30.0366 6.23438 29.1538 6.23438 26.9709Z"/>
<path d="M5.98438 26.9381C5.98438 23.3782 5.99701 22.9053 6.09154 22.9413C6.18504 22.9769 6.19871 23.4915 6.19871 26.9789C6.19871 30.4845 6.18552 30.9758 6.09154 30.9758C5.99754 30.9758 5.98438 30.4799 5.98438 26.9381Z"/>
<path d="M41.922 42.9654C39.9383 42.6565 38.2191 41.4233 37.3569 39.691C36.8734 38.7195 36.7204 38.0694 36.7188 36.9788C36.7175 36.1595 36.774 35.7819 37.0024 35.0823C37.6246 33.1768 39.2773 31.6226 41.2078 31.1275L41.6432 31.0158V22.8431L41.2788 22.75C39.3079 22.2463 37.6617 20.7356 37.0212 18.8427C36.7733 18.11 36.7242 17.7871 36.7236 16.8821C36.723 16.1278 36.7382 15.9698 36.8558 15.5039C36.9288 15.2145 37.0233 14.8988 37.0658 14.8023L37.1431 14.6269L37.144 14.8273C37.1445 14.9376 37.1116 15.4112 37.0709 15.8798C36.9636 17.1143 36.9717 18.0017 37.0948 18.4791C37.3523 19.4779 38.3329 20.876 39.2603 21.5664C39.7414 21.9245 40.0836 22.0933 40.9795 22.4142L41.7695 22.6971V31.147L40.7844 31.5618C39.7343 32.0039 39.4267 32.1686 38.9318 32.5538C38.0778 33.2185 37.4297 34.2267 37.118 35.3751C36.936 36.0455 36.8894 37.2428 37.0185 37.9311C37.4281 40.1155 38.8185 41.728 40.9462 42.4863C41.7016 42.7555 42.2092 42.8338 43.0053 42.8039C43.9963 42.7667 44.7507 42.5441 45.7099 42.0059C47.0072 41.2781 47.8268 40.3067 48.2813 38.9585C49.0126 36.7892 48.5066 34.3051 47.032 32.8247C46.3992 32.1895 45.8854 31.8962 44.6111 31.4426L43.866 31.1774V28.6863C43.866 27.3161 43.881 25.417 43.8993 24.4659L43.9325 22.7367L44.9728 22.2221C46.0818 21.6736 46.4613 21.4339 46.9733 20.9587C48.0959 19.917 48.686 18.5277 48.6836 16.9322C48.6819 15.76 48.356 14.7081 47.69 13.7248C47.375 13.2596 46.6208 12.5227 46.1159 12.1868C45.3543 11.6802 44.2224 11.1831 43.4618 11.0212L43.1335 10.9513L43.566 10.9474C44.9289 10.9349 46.6655 11.923 47.7019 13.3007C49.4959 15.6857 49.2342 19.055 47.0904 21.1737C46.3573 21.8982 45.4416 22.4299 44.4517 22.7059L43.967 22.8411V26.9406C43.967 30.5366 43.9762 31.0401 44.0422 31.0401C44.2087 31.0401 45.13 31.3662 45.5331 31.5678C48.2808 32.9422 49.5735 36.1452 48.5362 39.0087C48.2355 39.8386 47.8254 40.4879 47.1871 41.1449C46.3281 42.029 45.4445 42.538 44.2239 42.8517C43.8406 42.9502 43.5818 42.9799 42.9819 42.9943C42.5651 43.0044 42.0882 42.9914 41.922 42.9654Z"/>
<path d="M75.1932 8.83533C75.8097 8.83533 76.3644 8.97486 76.8699 9.24482C77.3753 9.51672 77.7677 9.88578 78.0608 10.3566L77.255 10.948C76.7594 10.187 76.0831 9.80689 75.2254 9.80689C74.5372 9.80689 73.9628 10.0364 73.5086 10.4981C73.0524 10.9577 72.8211 11.5387 72.8211 12.2397C72.8211 12.9413 73.0524 13.5216 73.5086 13.9826C73.9628 14.4442 74.5372 14.6738 75.2254 14.6738C76.0831 14.6738 76.7594 14.2936 77.255 13.5327L78.0608 14.1234C77.7782 14.5942 77.3852 14.9646 76.8797 15.2352C76.3743 15.5051 75.8195 15.6446 75.2037 15.6446C74.2237 15.6446 73.3982 15.3147 72.7199 14.664C72.0442 14.0132 71.7109 13.2008 71.7109 12.2299C71.7109 11.2681 72.054 10.4576 72.7323 9.7971C73.4074 9.13528 74.2342 8.80469 75.2155 8.80469L75.1932 8.83533Z"/>
<path d="M88.2887 8.80469V15.5253H87.2187V10.978L83.068 15.6355H82.6953V8.91489H83.766V13.4518L87.9232 8.80469H88.2887Z"/>
<path d="M94.8941 12.5298V14.5818H95.7268C96.1015 14.5818 96.3926 14.4931 96.5951 14.3118C96.7975 14.1325 96.8981 13.8815 96.8981 13.5704C96.8981 13.2614 96.7975 13.0103 96.5951 12.8193C96.3926 12.6302 96.112 12.5396 95.7367 12.5396L94.8941 12.5298ZM97.4456 9.86552H94.9046V11.628H95.828C96.484 11.628 97.0092 11.808 97.4035 12.1692C97.7959 12.5298 97.9984 13.0006 97.9984 13.5815C97.9984 14.1514 97.8084 14.6222 97.4134 14.9834C97.0184 15.344 96.4939 15.524 95.8379 15.524H93.8438V8.91419H97.4574L97.4456 9.86552Z"/>
<path d="M108.468 8.79883V15.5188H107.398V10.9721L103.248 15.629H102.875V8.90902H103.945V13.4453L108.103 8.79883H108.468Z"/>
<path d="M114.414 9.8068V11.9801H115.181C115.556 11.9801 115.847 11.8803 116.049 11.6795C116.252 11.4786 116.353 11.2185 116.353 10.8885C116.353 10.558 116.251 10.2971 116.049 10.097C115.847 9.89744 115.556 9.79702 115.181 9.79702L114.414 9.8068ZM115.201 8.85547C115.879 8.85547 116.424 9.04586 116.838 9.41688C117.25 9.78724 117.463 10.2782 117.463 10.8788C117.463 11.4786 117.25 11.9696 116.838 12.3511C116.424 12.7312 115.879 12.921 115.201 12.921H114.414V15.475H113.344V8.86525H115.201V8.85547Z"/>
<path d="M124.654 8.83533C125.27 8.83533 125.825 8.97486 126.331 9.24482C126.836 9.51672 127.229 9.88578 127.522 10.3566L126.716 10.948C126.22 10.187 125.544 9.80689 124.686 9.80689C123.998 9.80689 123.424 10.0364 122.97 10.4981C122.513 10.9577 122.282 11.5387 122.282 12.2397C122.282 12.9413 122.513 13.5216 122.97 13.9826C123.424 14.4442 123.998 14.6738 124.686 14.6738C125.544 14.6738 126.22 14.2936 126.716 13.5327L127.522 14.1234C127.238 14.5942 126.846 14.9646 126.341 15.2352C125.835 15.5051 125.28 15.6446 124.664 15.6446C123.685 15.6446 122.859 15.3147 122.18 14.664C121.504 14.0132 121.172 13.2008 121.172 12.2299C121.172 11.2681 121.515 10.4576 122.193 9.7971C122.868 9.13528 123.695 8.80469 124.676 8.80469L124.654 8.83533Z"/>
<path d="M147.453 8.80469V15.5253H146.382V10.978L142.232 15.6355H141.859V8.91489H142.93V13.4518L147.087 8.80469H147.453Z"/>
<path d="M154.6 8.16267C154.123 8.16267 153.729 8.01269 153.428 7.70297C153.125 7.39195 152.972 7.00072 152.972 6.53125H153.83C153.83 6.78033 153.902 6.98116 154.042 7.13113C154.186 7.28175 154.375 7.35152 154.609 7.35152C154.841 7.35152 155.033 7.28176 155.174 7.13113C155.315 6.98116 155.386 6.78033 155.386 6.53125H156.245C156.245 7.00072 156.092 7.39195 155.791 7.70297C155.488 8.01269 155.093 8.16267 154.619 8.16267H154.6ZM157.507 8.80363V15.5243H156.437V10.9769L152.286 15.6338H151.914V8.91382H152.985V13.4508L157.142 8.80363H157.507Z"/>
<path d="M75.9031 29.0442C76.5393 29.0442 77.0448 28.8838 77.4175 28.5636C77.7895 28.2428 77.982 27.8014 77.982 27.2315C77.982 26.6505 77.802 26.1986 77.4267 25.8785C77.0546 25.5577 76.5485 25.3979 75.913 25.3979V29.0539L75.9031 29.0442ZM72.7732 27.2413C72.7732 27.8124 72.9657 28.2526 73.3384 28.5727C73.7131 28.8935 74.2165 29.0539 74.8521 29.0539V25.3979C74.2165 25.3979 73.7131 25.5577 73.3384 25.8785C72.9657 26.1986 72.7837 26.6505 72.7837 27.2315L72.7732 27.2413ZM79.0817 27.2008C79.0817 28.0524 78.7911 28.7233 78.2035 29.2235C77.6192 29.7242 76.8621 29.9746 75.9222 29.9844V30.8764H74.8521V29.9844C73.9247 29.9747 73.1682 29.7144 72.5812 29.2143C71.9969 28.7136 71.7031 28.042 71.7031 27.2008C71.7031 26.359 71.9969 25.6985 72.5812 25.2082C73.1682 24.7178 73.9247 24.4668 74.862 24.457V23.625H75.9327V24.457C76.8719 24.4667 77.6291 24.7178 78.2141 25.2082C78.8003 25.6985 79.0935 26.359 79.0935 27.2008H79.0817Z"/>
<path d="M106.914 24.8185V26.9918H107.601C107.976 26.9918 108.268 26.892 108.47 26.6912C108.672 26.4904 108.773 26.2302 108.773 25.8996C108.773 25.5697 108.672 25.3089 108.47 25.1087C108.268 24.9092 107.976 24.8087 107.601 24.8087L106.914 24.8185ZM107.621 23.8672C108.299 23.8672 108.844 24.0576 109.258 24.4279C109.67 24.799 109.883 25.2893 109.883 25.8905C109.883 26.4904 109.67 26.9814 109.258 27.3628C108.844 27.743 108.299 27.9327 107.621 27.9327H106.914V30.4868H105.844V23.877H107.621V23.8672Z"/>
<path d="M114.135 25.7992L113.026 28.5431H115.235L114.135 25.7992ZM115.63 29.454H112.631L112.157 30.5566H111.016L113.953 23.8359H114.318L117.254 30.5566H116.103L115.63 29.454Z"/>
<path d="M128.195 27.4499V29.7334H128.843C129.236 29.7334 129.539 29.6232 129.751 29.4132C129.962 29.2026 130.074 28.9229 130.074 28.5812C130.074 28.2415 129.962 27.9611 129.751 27.7505C129.539 27.5406 129.236 27.4304 128.843 27.4304L128.195 27.4499ZM128.195 26.4881H128.843C129.539 26.4881 130.103 26.6792 130.528 27.0698C130.952 27.4597 131.164 27.9611 131.164 28.5714C131.164 29.1928 130.952 29.693 130.528 30.0737C130.103 30.4539 129.539 30.6449 128.843 30.6449H127.125V24.0352H128.195V26.4881Z"/>
<path d="M148.687 30.5649H147.617V23.9544H148.687V30.5649ZM143.75 27.3601V29.6442H144.473C144.865 29.6442 145.169 29.534 145.381 29.324C145.593 29.1134 145.704 28.833 145.704 28.492C145.704 28.1517 145.593 27.8719 145.381 27.6613C145.169 27.4507 144.865 27.3412 144.473 27.3412L143.75 27.3601ZM143.75 26.399H144.473C145.169 26.399 145.733 26.5894 146.157 26.9799C146.582 27.3699 146.794 27.8719 146.794 28.4822C146.794 29.1036 146.582 29.6038 146.157 29.9839C145.733 30.3647 145.169 30.5557 144.473 30.5557H142.68V23.9453H143.75V26.399Z"/>
<path d="M154.6 23.1939C154.123 23.1939 153.729 23.0439 153.428 22.7342C153.125 22.4232 152.972 22.032 152.972 21.5625H153.83C153.83 21.8116 153.902 22.0124 154.042 22.163C154.186 22.313 154.375 22.3834 154.609 22.3834C154.841 22.3834 155.033 22.313 155.174 22.163C155.315 22.0124 155.386 21.8116 155.386 21.5625H156.245C156.245 22.032 156.092 22.4232 155.791 22.7342C155.488 23.044 155.093 23.1939 154.619 23.1939H154.6ZM157.507 23.8349V30.5555H156.437V26.0088L152.286 30.6651H151.914V23.9451H152.985V28.482L157.142 23.8349H157.507Z"/>
<path d="M77.7548 38.9766L75.4438 44.2953C75.0396 45.2258 74.3324 45.6966 73.3333 45.6966C73.0619 45.6966 72.7786 45.6672 72.4848 45.5968V44.6754C72.8896 44.7061 73.1013 44.7257 73.121 44.7257C73.7382 44.7257 74.1621 44.4753 74.3941 43.9745L72.0312 38.9766H73.2617L74.9686 42.793L76.5349 38.9766L77.7548 38.9766Z"/>
<path d="M86.5228 45.587H85.4521V42.5622H82.1006V45.587H81.0312V38.9766H82.1006V41.6115H85.4521V38.9766H86.5228V45.587Z"/>
<path d="M96.2099 38.8652V45.5859H95.1399V41.0385L90.9899 45.6954H90.6172V38.9754H91.6872V43.5124L95.8451 38.8652H96.2099Z"/>
<path d="M102.185 44.5875C102.56 44.5875 102.853 44.4969 103.053 44.3169C103.256 44.1363 103.356 43.8853 103.356 43.5762C103.356 43.2652 103.255 43.0141 103.053 42.825C102.853 42.634 102.57 42.5433 102.195 42.5433H101.306V44.5973H102.195L102.185 44.5875ZM101.306 39.8497V41.6324H101.662C101.996 41.6324 102.247 41.5529 102.429 41.3925C102.609 41.2321 102.7 41.0123 102.7 40.7417C102.7 40.4718 102.609 40.2501 102.429 40.0897C102.247 39.9293 101.996 39.8497 101.662 39.8497H101.306ZM103.196 41.9233C103.588 42.053 103.901 42.2636 104.123 42.5531C104.345 42.8446 104.456 43.1941 104.456 43.6055C104.456 44.1663 104.257 44.6266 103.862 44.9872C103.467 45.3484 102.942 45.5284 102.296 45.5284H100.266V38.918H101.773C102.368 38.918 102.853 39.0784 103.215 39.4096C103.578 39.7395 103.76 40.1608 103.76 40.6804C103.76 41.1917 103.568 41.6024 103.196 41.9122V41.9233Z"/>
<path d="M116.5 39.7561V41.9294H117.214C117.588 41.9294 117.879 41.8296 118.081 41.6288C118.284 41.4279 118.385 41.1678 118.385 40.8378C118.385 40.5072 118.284 40.2464 118.081 40.0462C117.879 39.8467 117.588 39.7463 117.214 39.7463L116.5 39.7561ZM117.233 38.8048C117.911 38.8048 118.456 38.9952 118.87 39.3662C119.283 39.7365 119.495 40.2269 119.495 40.8281C119.495 41.4279 119.283 41.9189 118.87 42.3004C118.456 42.6812 117.911 42.8703 117.233 42.8703H116.5V45.4243H115.43V38.8145H117.233V38.8048Z"/>
<path d="M125.232 38.8353C125.848 38.8353 126.403 38.9749 126.909 39.2448C127.414 39.5161 127.807 39.8858 128.1 40.3566L127.291 40.948C126.798 40.187 126.122 39.8062 125.264 39.8062C124.576 39.8062 124.002 40.0364 123.548 40.4974C123.094 40.9571 122.86 41.5387 122.86 42.2397C122.86 42.9413 123.094 43.5216 123.548 43.9826C124.002 44.4436 124.576 44.6737 125.264 44.6737C126.122 44.6737 126.798 44.293 127.291 43.5327L128.1 44.1234C127.817 44.5942 127.424 44.9646 126.919 45.2352C126.413 45.5051 125.859 45.6446 125.242 45.6446C124.263 45.6446 123.437 45.3147 122.758 44.6633C122.083 44.0132 121.75 43.2008 121.75 42.2299C121.75 41.2681 122.093 40.457 122.769 39.7964C123.446 39.1346 124.273 38.8047 125.255 38.8047L125.232 38.8353Z"/>
<path d="M136.718 38.8633V45.5839H135.648V41.0365L131.498 45.6935H131.125V38.9735H132.195V43.5104L136.353 38.8633H136.718Z"/>
<path d="M143.694 39.9279H142.243V45.5863H141.172V39.9279H139.734V38.9766H143.694V39.9279Z"/>
<path d="M157.509 39.9279H156.058V45.5863H154.988V39.9279H153.547V38.9766H157.509V39.9279Z"/>
<path d="M85.9183 29.5081H83.5225V27.4156H85.9183V26.4943H83.5225V24.8009H85.9183V23.8496H82.4531V30.4594H85.9183V29.5081Z"/>
<path d="M102.356 29.6038H99.7732V27.5107H102.267V26.59H99.7732V24.8973H102.356V23.9453H98.7031V30.5551H102.356V29.6038Z"/>
<path d="M111.474 44.5784H108.929V42.4853H111.423V41.564H108.929V39.8713H111.474V38.9199H107.859V45.5297H111.474V44.5784Z"/>
<path d="M150.636 44.635H148.148V42.5419H150.636V41.6206H148.148V39.9279H150.636V38.9766H147.078V45.5863H150.636V44.635Z"/>
<path d="M137.562 15.5245H136.239L133.149 12.0087L135.946 8.91406H137.258L134.491 12.0087L137.562 15.5245ZM131.82 8.91406H132.89V15.5245H131.82V8.91406Z"/>
<path d="M133.718 12.4675H132.188V11.5898H133.718V12.4675Z"/>
<path d="M139.46 30.6456H138.39V27.6208H135.039V30.6456H133.969V24.0352H135.039V26.6701H138.39V24.0352H139.46V30.6456Z"/>
<path d="M90.4596 29.5081H93.4837V24.7925H91.6828C91.663 27.0303 91.2588 28.605 90.4596 29.5081ZM95.395 29.5081V31.8756H94.323V30.4613H89.822V31.8756H88.75V29.5081H89.266C89.7208 29.1168 90.0652 28.5554 90.3077 27.8232C90.5509 27.0903 90.6719 26.0763 90.6719 24.7925V23.8496H94.5656V29.5185L95.395 29.5081Z"/>
<path d="M124.045 24.0202V30.598H122.978V24.9683H121.026C121.015 25.9966 120.945 26.8749 120.814 27.6039C120.684 28.3322 120.493 28.9008 120.241 29.3207C119.99 29.74 119.707 30.049 119.396 30.2492C119.084 30.4481 118.712 30.5785 118.289 30.6287V29.6402C118.863 29.5202 119.285 29.101 119.557 28.3817C119.829 27.6632 119.97 26.5651 119.97 25.0785V24L124.045 24.0202Z"/>
<path d="M72.6161 45.5684C72.5798 45.5238 72.5391 45.3087 72.5256 45.0903L72.5011 44.6932L72.8931 44.7315C73.4091 44.782 73.8545 44.6579 74.107 44.3933C74.468 44.0151 74.5203 44.1935 73.2692 41.5391C72.6405 40.2052 72.1256 39.0931 72.125 39.0678C72.1244 39.0425 72.3798 39.0294 72.6926 39.0386L73.2612 39.0553L74.0822 40.8972C74.5338 41.9102 74.9211 42.7574 74.9429 42.7798C74.9647 42.8021 75.3293 41.9733 75.7531 40.9379L76.5235 39.0553L77.094 39.0386C77.4077 39.0294 77.6644 39.0394 77.6644 39.0609C77.6644 39.1422 75.6353 43.7556 75.3614 44.2972C75.0459 44.9208 74.7794 45.219 74.3391 45.4409C74.0959 45.5634 73.9389 45.592 73.3657 45.6182C72.8251 45.6429 72.6683 45.6326 72.6161 45.5684Z"/>
<path d="M81.0859 39.0273H82.088V41.6604L85.4771 41.6294L85.5088 39.0273H86.5086V45.5763H85.5066V42.5357H82.0954L82.077 43.9998C82.0615 45.2236 82.044 45.4729 81.9701 45.5192C81.9214 45.5496 81.7026 45.575 81.4838 45.5754L81.0859 45.5763V39.0273Z"/>
<path d="M90.7058 45.6197C90.6797 45.5797 90.6508 44.0799 90.6416 42.287L90.625 39.0271H91.6308V41.2456C91.6308 42.4658 91.6508 43.4764 91.6752 43.4914C91.6996 43.5063 92.5683 42.5709 93.6055 41.4124C95.5393 39.2528 95.8757 38.9102 96.062 38.9102C96.1645 38.9102 96.1693 39.059 96.1693 42.2431V45.5761H95.1673L95.1641 40.986L94.9446 41.2215C94.8238 41.351 93.9094 42.37 92.9125 43.4858C91.1649 45.442 90.8124 45.7831 90.7058 45.6197Z"/>
</mask>
<path d="M185.567 8.83203C186.044 8.83203 186.465 8.94224 186.84 9.16197C187.212 9.38236 187.505 9.66339 187.718 10.0135L186.97 10.5847C186.618 10.054 186.155 9.78336 185.578 9.78336C185.296 9.78336 185.052 9.85312 184.862 9.99397C184.67 10.1335 184.568 10.3343 184.568 10.5945C184.568 10.8247 184.64 10.9942 184.781 11.1155C184.922 11.2355 185.163 11.3861 185.499 11.5361L186.243 11.8764C186.778 12.1177 187.183 12.3974 187.446 12.6876C187.708 12.9784 187.839 13.3383 187.839 13.7687C187.839 14.3399 187.626 14.8015 187.202 15.151C186.778 15.5018 186.243 15.672 185.597 15.672C185.052 15.672 184.559 15.5429 184.125 15.2918C183.691 15.0408 183.348 14.6913 183.094 14.2394L183.851 13.6696C184.347 14.3705 184.931 14.7206 185.609 14.7206C185.952 14.7206 186.234 14.6411 186.445 14.4709C186.657 14.2994 186.768 14.0797 186.768 13.7993C186.768 13.5698 186.699 13.3885 186.546 13.2588C186.396 13.1277 186.144 12.9784 185.789 12.8186L185.052 12.477C184.559 12.2474 184.174 12.0062 183.903 11.716C183.629 11.4265 183.499 11.0653 183.499 10.6349C183.499 10.1042 183.7 9.67382 184.105 9.34323C184.507 9.012 185.003 8.84181 185.597 8.84181L185.567 8.83203Z" fill="white"/>
<path d="M192.25 15.5714H191.18V8.96094H192.25V15.5714Z" fill="white"/>
<path d="M198.011 14.6305C198.386 14.6305 198.68 14.5399 198.879 14.3599C199.082 14.1793 199.182 13.9282 199.182 13.6185C199.182 13.3081 199.082 13.0571 198.879 12.8673C198.68 12.6769 198.396 12.5863 198.022 12.5863H197.111V14.6403H198.022L198.011 14.6305ZM197.111 9.89271V11.6748H197.486C197.822 11.6748 198.074 11.5958 198.256 11.4354C198.436 11.275 198.527 11.0553 198.527 10.7847C198.527 10.5141 198.436 10.2931 198.256 10.1327C198.074 9.97227 197.822 9.89271 197.486 9.89271H197.111ZM199.022 11.9662C199.415 12.096 199.728 12.3059 199.95 12.5961C200.172 12.8876 200.283 13.2371 200.283 13.6478C200.283 14.2093 200.083 14.6696 199.689 15.0302C199.294 15.3914 198.768 15.5707 198.122 15.5707H196.07V8.96094H197.6C198.194 8.96094 198.68 9.12068 199.042 9.45258C199.405 9.78251 199.587 10.2037 199.587 10.7234C199.587 11.2346 199.395 11.6454 199.022 11.9551V11.9662Z" fill="white"/>
<path d="M207.465 9.9025H204.968V11.5959H207.465V12.5166H204.968V14.6096H207.465V15.561H203.898V8.95117H207.465V9.9025Z" fill="white"/>
<path d="M212.601 12.0686H213.943C214.317 12.0686 214.609 11.9682 214.821 11.768C215.033 11.5672 215.134 11.3064 215.134 10.9862C215.134 10.6556 215.033 10.3955 214.821 10.1959C214.609 9.99509 214.317 9.89533 213.943 9.89533H212.601V12.0686ZM215.721 15.5629L213.822 13.0088H212.601V15.5629H211.531V8.95312H213.963C214.642 8.95312 215.186 9.14417 215.598 9.51453C216.012 9.8849 216.224 10.3759 216.224 10.9764C216.224 11.4068 216.113 11.7869 215.892 12.1188C215.669 12.4487 215.356 12.6887 214.952 12.8393L216.952 15.5629H215.721Z" fill="white"/>
<path d="M220.907 15.5616H219.836V8.95117H220.907V15.5616Z" fill="white"/>
<path d="M226.565 10.8051L225.456 13.5489H227.665L226.565 10.8051ZM228.059 14.4598H225.061L224.587 15.5618H223.445L226.383 8.8418H226.747L229.684 15.5618H228.533L228.059 14.4598Z" fill="white"/>
<path d="M237.452 8.95199V15.6726H237.087L233.031 11.0953V15.5624H231.961V8.8418H232.333L236.382 13.4094V8.95199H237.452Z" fill="white"/>
<path d="M187.875 24.9357H184.664V26.9088H187.308V27.8699H184.664V30.5942H183.594V23.9844H187.875V24.9357Z" fill="white"/>
<path d="M194.687 24.9338H192.25V26.6265H194.687V27.5478H192.25V29.6409H194.687V30.5922H191.18V23.9824H194.687V24.9338Z" fill="white"/>
<path d="M199.243 24.9442V29.6415H200.251C201.028 29.6415 201.644 29.4211 202.098 28.9804C202.552 28.5402 202.787 27.969 202.787 27.2779C202.787 26.5671 202.564 25.9959 202.108 25.5754C201.654 25.1542 201.038 24.9442 200.261 24.9442H199.243ZM200.271 23.9824C201.373 23.9824 202.251 24.2837 202.907 24.894C203.563 25.5056 203.896 26.2972 203.896 27.2779C203.896 28.2494 203.563 29.0403 202.898 29.6617C202.229 30.2825 201.351 30.5929 200.261 30.5929H198.172V23.9824H200.271Z" fill="white"/>
<path d="M210.497 24.9338H208.015V26.6265H210.497V27.5478H208.015V29.6409H210.497V30.5922H206.945V23.9824H210.497V24.9338Z" fill="white"/>
<path d="M215.008 27.0979H216.35C216.724 27.0979 217.015 26.9975 217.227 26.7973C217.439 26.5965 217.541 26.3363 217.541 26.0155C217.541 25.6849 217.439 25.4247 217.227 25.2252C217.015 25.0244 216.724 24.9246 216.35 24.9246H215.008V27.0979ZM218.128 30.5929L216.229 28.0388H215.008V30.5929H213.938V23.9824H216.369C217.048 23.9824 217.593 24.1735 218.005 24.5438C218.418 24.9142 218.63 25.4052 218.63 26.0057C218.63 26.4361 218.52 26.8169 218.298 27.1481C218.076 27.478 217.762 27.718 217.358 27.8686L219.358 30.5929H218.128Z" fill="white"/>
<path d="M223.877 25.8344L222.768 28.5782H224.978L223.877 25.8344ZM225.371 29.4891H222.373L221.9 30.5917H220.758L223.695 23.8711H224.059L226.997 30.5917H225.845L225.371 29.4891Z" fill="white"/>
<path d="M230.398 29.6409H233.447V30.5922H229.328V23.9824H230.398V29.6409Z" fill="white"/>
<path d="M188.961 43.0087C188.949 43.8694 188.706 44.5508 188.204 45.0515C187.698 45.5529 187.042 45.8027 186.243 45.8027C185.426 45.8027 184.77 45.5529 184.265 45.0515C183.76 44.5508 183.508 43.8694 183.508 43.0087V39.0723H184.579V43.0784C184.579 43.6398 184.738 44.0702 185.052 44.3701C185.365 44.6707 185.77 44.8214 186.265 44.8214C186.749 44.8214 187.143 44.6707 187.456 44.3701C187.77 44.0702 187.92 43.6398 187.92 43.0784V39.0723H188.99L188.961 43.0087Z" fill="white"/>
<path d="M198.171 39.1336V45.8536H197.806L193.75 41.2769V45.7441H192.68V39.0234H193.052L197.101 43.591V39.1336H198.171Z" fill="white"/>
<path d="M203.008 45.7432H201.938V39.1328H203.008V45.7432Z" fill="white"/>
<path d="M212.254 39.0781L209.317 45.7981H208.952L206.016 39.0781H207.216L209.135 43.6744L211.054 39.0781H212.254Z" fill="white"/>
<path d="M218.745 40.0842H216.234V41.7769H218.745V42.6982H216.234V44.7913H218.745V45.7426H215.164V39.1328H218.745V40.0842Z" fill="white"/>
<path d="M223.445 42.2485H224.787C225.161 42.2485 225.452 42.1481 225.665 41.9479C225.876 41.7471 225.978 41.4869 225.978 41.1661C225.978 40.8355 225.876 40.5754 225.665 40.3758C225.452 40.175 225.161 40.0752 224.787 40.0752H223.445V42.2485ZM226.564 45.7435L224.666 43.1894H223.445V45.7435H222.375V39.133H224.806C225.485 39.133 226.029 39.3241 226.442 39.6945C226.855 40.0648 227.068 40.5558 227.068 41.1563C227.068 41.5867 226.957 41.9668 226.735 42.2987C226.513 42.6287 226.199 42.8686 225.795 43.0192L227.795 45.7435H226.564Z" fill="white"/>
<path d="M232.451 38.9531C232.926 38.9531 233.348 39.0627 233.723 39.2831C234.095 39.5035 234.388 39.7845 234.601 40.1346L233.854 40.7058C233.501 40.1751 233.038 39.9045 232.46 39.9045C232.179 39.9045 231.935 39.9742 231.745 40.1151C231.553 40.2546 231.452 40.4548 231.452 40.7156C231.452 40.9458 231.523 41.116 231.664 41.2366C231.804 41.3566 232.046 41.5072 232.382 41.6572L233.126 41.9975C233.661 42.2388 234.066 42.5185 234.329 42.8087C234.591 43.0995 234.721 43.4594 234.721 43.8898C234.721 44.461 234.51 44.922 234.085 45.2721C233.661 45.6229 233.126 45.7931 232.48 45.7931C231.935 45.7931 231.442 45.664 231.008 45.4129C230.574 45.1619 230.231 44.8124 229.977 44.3605L230.734 43.7907C231.23 44.4916 231.814 44.8418 232.492 44.8418C232.835 44.8418 233.116 44.7622 233.329 44.592C233.54 44.4205 233.651 44.2001 233.651 43.9204C233.651 43.6902 233.582 43.5096 233.429 43.3799C233.279 43.2488 233.028 43.0995 232.672 42.9397L231.935 42.5981C231.442 42.3679 231.057 42.1273 230.786 41.8371C230.512 41.5476 230.382 41.1864 230.382 40.756C230.382 40.2253 230.583 39.7949 230.988 39.4643C231.39 39.1324 231.886 38.9629 232.48 38.9629L232.451 38.9531Z" fill="white"/>
<path d="M238.852 45.7432H237.781V39.1328H238.852V45.7432Z" fill="white"/>
<path d="M245.743 40.0842H244.292V45.7426H243.222V40.0842H241.781V39.1328H245.743V40.0842Z" fill="white"/>
<path d="M250.981 43.0692V45.7433H249.91V43.079L247.609 39.1328H248.801L250.446 42.0077L252.1 39.1328H253.282L250.981 43.0692Z" fill="white"/>
<path d="M171.628 45.8524H170.523V9.3418H171.628V45.8524Z" fill="white"/>
<path d="M43.9704 31.0074V22.8509C46.7865 22.3032 48.9114 19.842 48.9114 16.8878C48.9114 13.5319 46.1685 10.8113 42.7857 10.8113C41.1047 10.8113 39.5814 11.4831 38.475 12.5712L30.7544 7.79964C30.7826 7.56213 30.7972 7.32126 30.7972 7.07648C30.7972 3.72052 28.0549 1 24.6721 1C21.2892 1 18.5469 3.72052 18.5469 7.07648C18.5469 10.4324 21.2892 13.153 24.6721 13.153C26.948 13.153 28.9343 11.9212 29.99 10.0932L37.145 14.5155C36.8334 15.2442 36.6605 16.0462 36.6605 16.8878C36.6605 19.842 38.7854 22.3032 41.601 22.8509V31.0074C38.7854 31.5545 36.6605 34.0163 36.6605 36.9704C36.6605 40.3264 39.4034 43.0464 42.7857 43.0464C46.1685 43.0464 48.9114 40.3264 48.9114 36.9704C48.9114 34.0163 46.7865 31.5545 43.9704 31.0074Z" fill="white"/>
<path d="M30.8001 26.93C30.8001 23.5741 28.0577 20.8535 24.6749 20.8535C21.2926 20.8535 18.5497 23.5741 18.5497 26.93C18.5497 29.8836 20.6746 32.3426 23.4902 32.8903V40.9619C21.9804 41.2553 20.6696 42.0991 19.7783 43.2739L12.8932 39.0187C13.1242 38.3788 13.2498 37.6897 13.2498 36.971C13.2498 34.0175 11.1255 31.5557 8.30933 31.008V22.8515C11.1255 22.3043 13.2498 19.8426 13.2498 16.889C13.2498 13.5325 10.508 10.8125 7.12518 10.8125C3.74177 10.8125 1 13.5325 1 16.889C1 19.8426 3.12435 22.3043 5.94048 22.8515V31.008C3.12435 31.5557 1 34.0175 1 36.971C1 40.327 3.74177 43.0475 7.12518 43.0475C8.93294 43.0475 10.5582 42.2707 11.6792 41.0345L18.7441 45.4009C18.6173 45.8876 18.5497 46.3985 18.5497 46.9243C18.5497 50.2803 21.2926 53.0008 24.6749 53.0008C28.0577 53.0008 30.8001 50.2803 30.8001 46.9243C30.8001 43.9708 28.6757 41.509 25.8596 40.9619V32.8903C28.6752 32.3426 30.8001 29.8836 30.8001 26.93Z" fill="white"/>
<path d="M23.0726 52.5934C20.6623 51.8689 18.7809 49.2849 18.7809 46.6989C18.7809 45.2029 18.6946 45.1127 15.2641 43.0235C12.44 41.3035 11.6241 40.9715 11.1216 41.3378C8.33781 43.3673 5.2985 43.3174 3.17157 41.2073C0.0955596 38.1558 0.99498 33.1212 4.90572 31.5001L6.25238 30.9419V22.9941L4.55542 22.062C-0.124416 19.4914 0.345184 13.0848 5.34189 11.3324C9.64679 9.82273 14.1002 14.1075 12.7777 18.4866C12.2916 20.0963 9.93546 22.5331 8.86526 22.5331C8.38104 22.5331 8.27311 23.337 8.27311 26.9434C8.27311 30.5498 8.38104 31.3536 8.86526 31.3536C9.86451 31.3536 12.2386 33.7193 12.7341 35.2087C12.9919 35.9838 13.0958 37.1926 12.965 37.8949C12.7335 39.1366 12.8222 39.2301 16.1771 41.2827L19.6272 43.3937L20.9217 42.4446C21.6336 41.9226 22.5344 41.3843 22.9234 41.2484C23.5367 41.034 23.6281 40.4536 23.6118 36.879L23.5929 32.7569L21.9405 31.952C17.6948 29.8839 17.7545 24.0265 22.044 21.8088C24.1331 20.7287 26.2728 20.8582 28.1408 22.1778C31.6901 24.685 31.1744 30.4595 27.2554 32.0921L25.6596 32.7569L25.6514 40.91L27.1616 41.6446C30.1589 43.1027 31.3223 46.5555 29.8519 49.6294C28.7553 51.922 25.5301 53.3321 23.0726 52.5934Z" fill="white"/>
<path d="M40.3078 42.2154C35.8586 40.1613 35.7981 33.6591 40.211 31.8207L41.8068 31.1559L41.815 22.697L40.3853 22.1841C39.5039 21.8679 38.5545 21.07 37.9099 20.1037C37.0292 18.7835 36.8923 18.2016 37.0417 16.4141L37.2192 14.2919L30.0549 9.99484L28.9635 11.0042C27.3988 12.4513 26.3238 12.9135 24.5231 12.9135C20.2643 12.9135 17.3679 7.79668 19.5848 4.18955C22.4601 -0.488762 29.7823 0.869606 30.3872 6.19354C30.5828 7.91513 30.6472 7.98047 34.4162 10.2819L38.2465 12.6206L39.974 11.7647C42.1658 10.6788 43.2299 10.6878 45.4379 11.8109C49.7129 13.9857 49.7641 19.867 45.5259 21.9314L43.8735 22.7363L43.8358 31.1953L45.2383 31.6984C49.3101 33.1591 49.8072 39.4823 46.0321 41.7968C44.0554 43.0088 42.3037 43.1369 40.3078 42.2154Z" fill="white"/>
<path d="M6.03672 42.9183C3.14798 42.3748 1.05469 39.8984 1.05469 37.0246C1.05469 36.6187 1.10562 36.0407 1.16786 35.7402C1.48232 34.2223 2.45018 32.8092 3.77778 31.9297C4.3036 31.5813 5.22001 31.1694 5.39445 31.2031C5.45662 31.2151 5.31739 31.3006 5.08504 31.3931C3.24799 32.1244 1.97694 33.5382 1.4767 35.4066C1.26418 36.2003 1.26383 37.5163 1.47595 38.3125C1.9962 40.2653 3.43487 41.8953 5.20336 42.5356C6.93858 43.1638 8.88091 42.8368 10.7906 41.5949C11.0961 41.3962 11.3604 41.2479 11.378 41.2653C11.4479 41.3347 10.3439 42.1227 9.80652 42.3871C8.69463 42.9342 7.22298 43.1416 6.03672 42.9183Z" fill="white"/>
<path d="M6.23438 26.9709C6.23437 24.7879 6.24343 23.8846 6.25452 24.9636C6.26557 26.0426 6.26557 27.8286 6.25454 28.9326C6.24348 30.0366 6.23438 29.1538 6.23438 26.9709Z" fill="white"/>
<path d="M5.98438 26.9381C5.98438 23.3782 5.99701 22.9053 6.09154 22.9413C6.18504 22.9769 6.19871 23.4915 6.19871 26.9789C6.19871 30.4845 6.18552 30.9758 6.09154 30.9758C5.99754 30.9758 5.98438 30.4799 5.98438 26.9381Z" fill="white"/>
<path d="M41.922 42.9654C39.9383 42.6565 38.2191 41.4233 37.3569 39.691C36.8734 38.7195 36.7204 38.0694 36.7188 36.9788C36.7175 36.1595 36.774 35.7819 37.0024 35.0823C37.6246 33.1768 39.2773 31.6226 41.2078 31.1275L41.6432 31.0158V22.8431L41.2788 22.75C39.3079 22.2463 37.6617 20.7356 37.0212 18.8427C36.7733 18.11 36.7242 17.7871 36.7236 16.8821C36.723 16.1278 36.7382 15.9698 36.8558 15.5039C36.9288 15.2145 37.0233 14.8988 37.0658 14.8023L37.1431 14.6269L37.144 14.8273C37.1445 14.9376 37.1116 15.4112 37.0709 15.8798C36.9636 17.1143 36.9717 18.0017 37.0948 18.4791C37.3523 19.4779 38.3329 20.876 39.2603 21.5664C39.7414 21.9245 40.0836 22.0933 40.9795 22.4142L41.7695 22.6971V31.147L40.7844 31.5618C39.7343 32.0039 39.4267 32.1686 38.9318 32.5538C38.0778 33.2185 37.4297 34.2267 37.118 35.3751C36.936 36.0455 36.8894 37.2428 37.0185 37.9311C37.4281 40.1155 38.8185 41.728 40.9462 42.4863C41.7016 42.7555 42.2092 42.8338 43.0053 42.8039C43.9963 42.7667 44.7507 42.5441 45.7099 42.0059C47.0072 41.2781 47.8268 40.3067 48.2813 38.9585C49.0126 36.7892 48.5066 34.3051 47.032 32.8247C46.3992 32.1895 45.8854 31.8962 44.6111 31.4426L43.866 31.1774V28.6863C43.866 27.3161 43.881 25.417 43.8993 24.4659L43.9325 22.7367L44.9728 22.2221C46.0818 21.6736 46.4613 21.4339 46.9733 20.9587C48.0959 19.917 48.686 18.5277 48.6836 16.9322C48.6819 15.76 48.356 14.7081 47.69 13.7248C47.375 13.2596 46.6208 12.5227 46.1159 12.1868C45.3543 11.6802 44.2224 11.1831 43.4618 11.0212L43.1335 10.9513L43.566 10.9474C44.9289 10.9349 46.6655 11.923 47.7019 13.3007C49.4959 15.6857 49.2342 19.055 47.0904 21.1737C46.3573 21.8982 45.4416 22.4299 44.4517 22.7059L43.967 22.8411V26.9406C43.967 30.5366 43.9762 31.0401 44.0422 31.0401C44.2087 31.0401 45.13 31.3662 45.5331 31.5678C48.2808 32.9422 49.5735 36.1452 48.5362 39.0087C48.2355 39.8386 47.8254 40.4879 47.1871 41.1449C46.3281 42.029 45.4445 42.538 44.2239 42.8517C43.8406 42.9502 43.5818 42.9799 42.9819 42.9943C42.5651 43.0044 42.0882 42.9914 41.922 42.9654Z" fill="white"/>
<path d="M75.1932 8.83533C75.8097 8.83533 76.3644 8.97486 76.8699 9.24482C77.3753 9.51672 77.7677 9.88578 78.0608 10.3566L77.255 10.948C76.7594 10.187 76.0831 9.80689 75.2254 9.80689C74.5372 9.80689 73.9628 10.0364 73.5086 10.4981C73.0524 10.9577 72.8211 11.5387 72.8211 12.2397C72.8211 12.9413 73.0524 13.5216 73.5086 13.9826C73.9628 14.4442 74.5372 14.6738 75.2254 14.6738C76.0831 14.6738 76.7594 14.2936 77.255 13.5327L78.0608 14.1234C77.7782 14.5942 77.3852 14.9646 76.8797 15.2352C76.3743 15.5051 75.8195 15.6446 75.2037 15.6446C74.2237 15.6446 73.3982 15.3147 72.7199 14.664C72.0442 14.0132 71.7109 13.2008 71.7109 12.2299C71.7109 11.2681 72.054 10.4576 72.7323 9.7971C73.4074 9.13528 74.2342 8.80469 75.2155 8.80469L75.1932 8.83533Z" fill="white"/>
<path d="M88.2887 8.80469V15.5253H87.2187V10.978L83.068 15.6355H82.6953V8.91489H83.766V13.4518L87.9232 8.80469H88.2887Z" fill="white"/>
<path d="M94.8941 12.5298V14.5818H95.7268C96.1015 14.5818 96.3926 14.4931 96.5951 14.3118C96.7975 14.1325 96.8981 13.8815 96.8981 13.5704C96.8981 13.2614 96.7975 13.0103 96.5951 12.8193C96.3926 12.6302 96.112 12.5396 95.7367 12.5396L94.8941 12.5298ZM97.4456 9.86552H94.9046V11.628H95.828C96.484 11.628 97.0092 11.808 97.4035 12.1692C97.7959 12.5298 97.9984 13.0006 97.9984 13.5815C97.9984 14.1514 97.8084 14.6222 97.4134 14.9834C97.0184 15.344 96.4939 15.524 95.8379 15.524H93.8438V8.91419H97.4574L97.4456 9.86552Z" fill="white"/>
<path d="M108.468 8.79883V15.5188H107.398V10.9721L103.248 15.629H102.875V8.90902H103.945V13.4453L108.103 8.79883H108.468Z" fill="white"/>
<path d="M114.414 9.8068V11.9801H115.181C115.556 11.9801 115.847 11.8803 116.049 11.6795C116.252 11.4786 116.353 11.2185 116.353 10.8885C116.353 10.558 116.251 10.2971 116.049 10.097C115.847 9.89744 115.556 9.79702 115.181 9.79702L114.414 9.8068ZM115.201 8.85547C115.879 8.85547 116.424 9.04586 116.838 9.41688C117.25 9.78724 117.463 10.2782 117.463 10.8788C117.463 11.4786 117.25 11.9696 116.838 12.3511C116.424 12.7312 115.879 12.921 115.201 12.921H114.414V15.475H113.344V8.86525H115.201V8.85547Z" fill="white"/>
<path d="M124.654 8.83533C125.27 8.83533 125.825 8.97486 126.331 9.24482C126.836 9.51672 127.229 9.88578 127.522 10.3566L126.716 10.948C126.22 10.187 125.544 9.80689 124.686 9.80689C123.998 9.80689 123.424 10.0364 122.97 10.4981C122.513 10.9577 122.282 11.5387 122.282 12.2397C122.282 12.9413 122.513 13.5216 122.97 13.9826C123.424 14.4442 123.998 14.6738 124.686 14.6738C125.544 14.6738 126.22 14.2936 126.716 13.5327L127.522 14.1234C127.238 14.5942 126.846 14.9646 126.341 15.2352C125.835 15.5051 125.28 15.6446 124.664 15.6446C123.685 15.6446 122.859 15.3147 122.18 14.664C121.504 14.0132 121.172 13.2008 121.172 12.2299C121.172 11.2681 121.515 10.4576 122.193 9.7971C122.868 9.13528 123.695 8.80469 124.676 8.80469L124.654 8.83533Z" fill="white"/>
<path d="M147.453 8.80469V15.5253H146.382V10.978L142.232 15.6355H141.859V8.91489H142.93V13.4518L147.087 8.80469H147.453Z" fill="white"/>
<path d="M154.6 8.16267C154.123 8.16267 153.729 8.01269 153.428 7.70297C153.125 7.39195 152.972 7.00072 152.972 6.53125H153.83C153.83 6.78033 153.902 6.98116 154.042 7.13113C154.186 7.28175 154.375 7.35152 154.609 7.35152C154.841 7.35152 155.033 7.28176 155.174 7.13113C155.315 6.98116 155.386 6.78033 155.386 6.53125H156.245C156.245 7.00072 156.092 7.39195 155.791 7.70297C155.488 8.01269 155.093 8.16267 154.619 8.16267H154.6ZM157.507 8.80363V15.5243H156.437V10.9769L152.286 15.6338H151.914V8.91382H152.985V13.4508L157.142 8.80363H157.507Z" fill="white"/>
<path d="M75.9031 29.0442C76.5393 29.0442 77.0448 28.8838 77.4175 28.5636C77.7895 28.2428 77.982 27.8014 77.982 27.2315C77.982 26.6505 77.802 26.1986 77.4267 25.8785C77.0546 25.5577 76.5485 25.3979 75.913 25.3979V29.0539L75.9031 29.0442ZM72.7732 27.2413C72.7732 27.8124 72.9657 28.2526 73.3384 28.5727C73.7131 28.8935 74.2165 29.0539 74.8521 29.0539V25.3979C74.2165 25.3979 73.7131 25.5577 73.3384 25.8785C72.9657 26.1986 72.7837 26.6505 72.7837 27.2315L72.7732 27.2413ZM79.0817 27.2008C79.0817 28.0524 78.7911 28.7233 78.2035 29.2235C77.6192 29.7242 76.8621 29.9746 75.9222 29.9844V30.8764H74.8521V29.9844C73.9247 29.9747 73.1682 29.7144 72.5812 29.2143C71.9969 28.7136 71.7031 28.042 71.7031 27.2008C71.7031 26.359 71.9969 25.6985 72.5812 25.2082C73.1682 24.7178 73.9247 24.4668 74.862 24.457V23.625H75.9327V24.457C76.8719 24.4667 77.6291 24.7178 78.2141 25.2082C78.8003 25.6985 79.0935 26.359 79.0935 27.2008H79.0817Z" fill="white"/>
<path d="M106.914 24.8185V26.9918H107.601C107.976 26.9918 108.268 26.892 108.47 26.6912C108.672 26.4904 108.773 26.2302 108.773 25.8996C108.773 25.5697 108.672 25.3089 108.47 25.1087C108.268 24.9092 107.976 24.8087 107.601 24.8087L106.914 24.8185ZM107.621 23.8672C108.299 23.8672 108.844 24.0576 109.258 24.4279C109.67 24.799 109.883 25.2893 109.883 25.8905C109.883 26.4904 109.67 26.9814 109.258 27.3628C108.844 27.743 108.299 27.9327 107.621 27.9327H106.914V30.4868H105.844V23.877H107.621V23.8672Z" fill="white"/>
<path d="M114.135 25.7992L113.026 28.5431H115.235L114.135 25.7992ZM115.63 29.454H112.631L112.157 30.5566H111.016L113.953 23.8359H114.318L117.254 30.5566H116.103L115.63 29.454Z" fill="white"/>
<path d="M128.195 27.4499V29.7334H128.843C129.236 29.7334 129.539 29.6232 129.751 29.4132C129.962 29.2026 130.074 28.9229 130.074 28.5812C130.074 28.2415 129.962 27.9611 129.751 27.7505C129.539 27.5406 129.236 27.4304 128.843 27.4304L128.195 27.4499ZM128.195 26.4881H128.843C129.539 26.4881 130.103 26.6792 130.528 27.0698C130.952 27.4597 131.164 27.9611 131.164 28.5714C131.164 29.1928 130.952 29.693 130.528 30.0737C130.103 30.4539 129.539 30.6449 128.843 30.6449H127.125V24.0352H128.195V26.4881Z" fill="white"/>
<path d="M148.687 30.5649H147.617V23.9544H148.687V30.5649ZM143.75 27.3601V29.6442H144.473C144.865 29.6442 145.169 29.534 145.381 29.324C145.593 29.1134 145.704 28.833 145.704 28.492C145.704 28.1517 145.593 27.8719 145.381 27.6613C145.169 27.4507 144.865 27.3412 144.473 27.3412L143.75 27.3601ZM143.75 26.399H144.473C145.169 26.399 145.733 26.5894 146.157 26.9799C146.582 27.3699 146.794 27.8719 146.794 28.4822C146.794 29.1036 146.582 29.6038 146.157 29.9839C145.733 30.3647 145.169 30.5557 144.473 30.5557H142.68V23.9453H143.75V26.399Z" fill="white"/>
<path d="M154.6 23.1939C154.123 23.1939 153.729 23.0439 153.428 22.7342C153.125 22.4232 152.972 22.032 152.972 21.5625H153.83C153.83 21.8116 153.902 22.0124 154.042 22.163C154.186 22.313 154.375 22.3834 154.609 22.3834C154.841 22.3834 155.033 22.313 155.174 22.163C155.315 22.0124 155.386 21.8116 155.386 21.5625H156.245C156.245 22.032 156.092 22.4232 155.791 22.7342C155.488 23.044 155.093 23.1939 154.619 23.1939H154.6ZM157.507 23.8349V30.5555H156.437V26.0088L152.286 30.6651H151.914V23.9451H152.985V28.482L157.142 23.8349H157.507Z" fill="white"/>
<path d="M77.7548 38.9766L75.4438 44.2953C75.0396 45.2258 74.3324 45.6966 73.3333 45.6966C73.0619 45.6966 72.7786 45.6672 72.4848 45.5968V44.6754C72.8896 44.7061 73.1013 44.7257 73.121 44.7257C73.7382 44.7257 74.1621 44.4753 74.3941 43.9745L72.0312 38.9766H73.2617L74.9686 42.793L76.5349 38.9766L77.7548 38.9766Z" fill="white"/>
<path d="M86.5228 45.587H85.4521V42.5622H82.1006V45.587H81.0312V38.9766H82.1006V41.6115H85.4521V38.9766H86.5228V45.587Z" fill="white"/>
<path d="M96.2099 38.8652V45.5859H95.1399V41.0385L90.9899 45.6954H90.6172V38.9754H91.6872V43.5124L95.8451 38.8652H96.2099Z" fill="white"/>
<path d="M102.185 44.5875C102.56 44.5875 102.853 44.4969 103.053 44.3169C103.256 44.1363 103.356 43.8853 103.356 43.5762C103.356 43.2652 103.255 43.0141 103.053 42.825C102.853 42.634 102.57 42.5433 102.195 42.5433H101.306V44.5973H102.195L102.185 44.5875ZM101.306 39.8497V41.6324H101.662C101.996 41.6324 102.247 41.5529 102.429 41.3925C102.609 41.2321 102.7 41.0123 102.7 40.7417C102.7 40.4718 102.609 40.2501 102.429 40.0897C102.247 39.9293 101.996 39.8497 101.662 39.8497H101.306ZM103.196 41.9233C103.588 42.053 103.901 42.2636 104.123 42.5531C104.345 42.8446 104.456 43.1941 104.456 43.6055C104.456 44.1663 104.257 44.6266 103.862 44.9872C103.467 45.3484 102.942 45.5284 102.296 45.5284H100.266V38.918H101.773C102.368 38.918 102.853 39.0784 103.215 39.4096C103.578 39.7395 103.76 40.1608 103.76 40.6804C103.76 41.1917 103.568 41.6024 103.196 41.9122V41.9233Z" fill="white"/>
<path d="M116.5 39.7561V41.9294H117.214C117.588 41.9294 117.879 41.8296 118.081 41.6288C118.284 41.4279 118.385 41.1678 118.385 40.8378C118.385 40.5072 118.284 40.2464 118.081 40.0462C117.879 39.8467 117.588 39.7463 117.214 39.7463L116.5 39.7561ZM117.233 38.8048C117.911 38.8048 118.456 38.9952 118.87 39.3662C119.283 39.7365 119.495 40.2269 119.495 40.8281C119.495 41.4279 119.283 41.9189 118.87 42.3004C118.456 42.6812 117.911 42.8703 117.233 42.8703H116.5V45.4243H115.43V38.8145H117.233V38.8048Z" fill="white"/>
<path d="M125.232 38.8353C125.848 38.8353 126.403 38.9749 126.909 39.2448C127.414 39.5161 127.807 39.8858 128.1 40.3566L127.291 40.948C126.798 40.187 126.122 39.8062 125.264 39.8062C124.576 39.8062 124.002 40.0364 123.548 40.4974C123.094 40.9571 122.86 41.5387 122.86 42.2397C122.86 42.9413 123.094 43.5216 123.548 43.9826C124.002 44.4436 124.576 44.6737 125.264 44.6737C126.122 44.6737 126.798 44.293 127.291 43.5327L128.1 44.1234C127.817 44.5942 127.424 44.9646 126.919 45.2352C126.413 45.5051 125.859 45.6446 125.242 45.6446C124.263 45.6446 123.437 45.3147 122.758 44.6633C122.083 44.0132 121.75 43.2008 121.75 42.2299C121.75 41.2681 122.093 40.457 122.769 39.7964C123.446 39.1346 124.273 38.8047 125.255 38.8047L125.232 38.8353Z" fill="white"/>
<path d="M136.718 38.8633V45.5839H135.648V41.0365L131.498 45.6935H131.125V38.9735H132.195V43.5104L136.353 38.8633H136.718Z" fill="white"/>
<path d="M143.694 39.9279H142.243V45.5863H141.172V39.9279H139.734V38.9766H143.694V39.9279Z" fill="white"/>
<path d="M157.509 39.9279H156.058V45.5863H154.988V39.9279H153.547V38.9766H157.509V39.9279Z" fill="white"/>
<path d="M85.9183 29.5081H83.5225V27.4156H85.9183V26.4943H83.5225V24.8009H85.9183V23.8496H82.4531V30.4594H85.9183V29.5081Z" fill="white"/>
<path d="M102.356 29.6038H99.7732V27.5107H102.267V26.59H99.7732V24.8973H102.356V23.9453H98.7031V30.5551H102.356V29.6038Z" fill="white"/>
<path d="M111.474 44.5784H108.929V42.4853H111.423V41.564H108.929V39.8713H111.474V38.9199H107.859V45.5297H111.474V44.5784Z" fill="white"/>
<path d="M150.636 44.635H148.148V42.5419H150.636V41.6206H148.148V39.9279H150.636V38.9766H147.078V45.5863H150.636V44.635Z" fill="white"/>
<path d="M137.562 15.5245H136.239L133.149 12.0087L135.946 8.91406H137.258L134.491 12.0087L137.562 15.5245ZM131.82 8.91406H132.89V15.5245H131.82V8.91406Z" fill="white"/>
<path d="M133.718 12.4675H132.188V11.5898H133.718V12.4675Z" fill="white"/>
<path d="M139.46 30.6456H138.39V27.6208H135.039V30.6456H133.969V24.0352H135.039V26.6701H138.39V24.0352H139.46V30.6456Z" fill="white"/>
<path d="M90.4596 29.5081H93.4837V24.7925H91.6828C91.663 27.0303 91.2588 28.605 90.4596 29.5081ZM95.395 29.5081V31.8756H94.323V30.4613H89.822V31.8756H88.75V29.5081H89.266C89.7208 29.1168 90.0652 28.5554 90.3077 27.8232C90.5509 27.0903 90.6719 26.0763 90.6719 24.7925V23.8496H94.5656V29.5185L95.395 29.5081Z" fill="white"/>
<path d="M124.045 24.0202V30.598H122.978V24.9683H121.026C121.015 25.9966 120.945 26.8749 120.814 27.6039C120.684 28.3322 120.493 28.9008 120.241 29.3207C119.99 29.74 119.707 30.049 119.396 30.2492C119.084 30.4481 118.712 30.5785 118.289 30.6287V29.6402C118.863 29.5202 119.285 29.101 119.557 28.3817C119.829 27.6632 119.97 26.5651 119.97 25.0785V24L124.045 24.0202Z" fill="white"/>
<path d="M72.6161 45.5684C72.5798 45.5238 72.5391 45.3087 72.5256 45.0903L72.5011 44.6932L72.8931 44.7315C73.4091 44.782 73.8545 44.6579 74.107 44.3933C74.468 44.0151 74.5203 44.1935 73.2692 41.5391C72.6405 40.2052 72.1256 39.0931 72.125 39.0678C72.1244 39.0425 72.3798 39.0294 72.6926 39.0386L73.2612 39.0553L74.0822 40.8972C74.5338 41.9102 74.9211 42.7574 74.9429 42.7798C74.9647 42.8021 75.3293 41.9733 75.7531 40.9379L76.5235 39.0553L77.094 39.0386C77.4077 39.0294 77.6644 39.0394 77.6644 39.0609C77.6644 39.1422 75.6353 43.7556 75.3614 44.2972C75.0459 44.9208 74.7794 45.219 74.3391 45.4409C74.0959 45.5634 73.9389 45.592 73.3657 45.6182C72.8251 45.6429 72.6683 45.6326 72.6161 45.5684Z" fill="white"/>
<path d="M81.0859 39.0273H82.088V41.6604L85.4771 41.6294L85.5088 39.0273H86.5086V45.5763H85.5066V42.5357H82.0954L82.077 43.9998C82.0615 45.2236 82.044 45.4729 81.9701 45.5192C81.9214 45.5496 81.7026 45.575 81.4838 45.5754L81.0859 45.5763V39.0273Z" fill="white"/>
<path d="M90.7058 45.6197C90.6797 45.5797 90.6508 44.0799 90.6416 42.287L90.625 39.0271H91.6308V41.2456C91.6308 42.4658 91.6508 43.4764 91.6752 43.4914C91.6996 43.5063 92.5683 42.5709 93.6055 41.4124C95.5393 39.2528 95.8757 38.9102 96.062 38.9102C96.1645 38.9102 96.1693 39.059 96.1693 42.2431V45.5761H95.1673L95.1641 40.986L94.9446 41.2215C94.8238 41.351 93.9094 42.37 92.9125 43.4858C91.1649 45.442 90.8124 45.7831 90.7058 45.6197Z" fill="white"/>
<path d="M185.567 8.83203C186.044 8.83203 186.465 8.94224 186.84 9.16197C187.212 9.38236 187.505 9.66339 187.718 10.0135L186.97 10.5847C186.618 10.054 186.155 9.78336 185.578 9.78336C185.296 9.78336 185.052 9.85312 184.862 9.99397C184.67 10.1335 184.568 10.3343 184.568 10.5945C184.568 10.8247 184.64 10.9942 184.781 11.1155C184.922 11.2355 185.163 11.3861 185.499 11.5361L186.243 11.8764C186.778 12.1177 187.183 12.3974 187.446 12.6876C187.708 12.9784 187.839 13.3383 187.839 13.7687C187.839 14.3399 187.626 14.8015 187.202 15.151C186.778 15.5018 186.243 15.672 185.597 15.672C185.052 15.672 184.559 15.5429 184.125 15.2918C183.691 15.0408 183.348 14.6913 183.094 14.2394L183.851 13.6696C184.347 14.3705 184.931 14.7206 185.609 14.7206C185.952 14.7206 186.234 14.6411 186.445 14.4709C186.657 14.2994 186.768 14.0797 186.768 13.7993C186.768 13.5698 186.699 13.3885 186.546 13.2588C186.396 13.1277 186.144 12.9784 185.789 12.8186L185.052 12.477C184.559 12.2474 184.174 12.0062 183.903 11.716C183.629 11.4265 183.499 11.0653 183.499 10.6349C183.499 10.1042 183.7 9.67382 184.105 9.34323C184.507 9.012 185.003 8.84181 185.597 8.84181L185.567 8.83203Z" stroke="white" strokeWidth="0.4" mask="url(#path-1-outside-1_1487_29305)"/>
<path d="M192.25 15.5714H191.18V8.96094H192.25V15.5714Z" stroke="white" strokeWidth="0.4" mask="url(#path-1-outside-1_1487_29305)"/>
<path d="M198.011 14.6305C198.386 14.6305 198.68 14.5399 198.879 14.3599C199.082 14.1793 199.182 13.9282 199.182 13.6185C199.182 13.3081 199.082 13.0571 198.879 12.8673C198.68 12.6769 198.396 12.5863 198.022 12.5863H197.111V14.6403H198.022L198.011 14.6305ZM197.111 9.89271V11.6748H197.486C197.822 11.6748 198.074 11.5958 198.256 11.4354C198.436 11.275 198.527 11.0553 198.527 10.7847C198.527 10.5141 198.436 10.2931 198.256 10.1327C198.074 9.97227 197.822 9.89271 197.486 9.89271H197.111ZM199.022 11.9662C199.415 12.096 199.728 12.3059 199.95 12.5961C200.172 12.8876 200.283 13.2371 200.283 13.6478C200.283 14.2093 200.083 14.6696 199.689 15.0302C199.294 15.3914 198.768 15.5707 198.122 15.5707H196.07V8.96094H197.6C198.194 8.96094 198.68 9.12068 199.042 9.45258C199.405 9.78251 199.587 10.2037 199.587 10.7234C199.587 11.2346 199.395 11.6454 199.022 11.9551V11.9662Z" stroke="white" strokeWidth="0.4" mask="url(#path-1-outside-1_1487_29305)"/>
<path d="M207.465 9.9025H204.968V11.5959H207.465V12.5166H204.968V14.6096H207.465V15.561H203.898V8.95117H207.465V9.9025Z" stroke="white" strokeWidth="0.4" mask="url(#path-1-outside-1_1487_29305)"/>
<path d="M212.601 12.0686H213.943C214.317 12.0686 214.609 11.9682 214.821 11.768C215.033 11.5672 215.134 11.3064 215.134 10.9862C215.134 10.6556 215.033 10.3955 214.821 10.1959C214.609 9.99509 214.317 9.89533 213.943 9.89533H212.601V12.0686ZM215.721 15.5629L213.822 13.0088H212.601V15.5629H211.531V8.95312H213.963C214.642 8.95312 215.186 9.14417 215.598 9.51453C216.012 9.8849 216.224 10.3759 216.224 10.9764C216.224 11.4068 216.113 11.7869 215.892 12.1188C215.669 12.4487 215.356 12.6887 214.952 12.8393L216.952 15.5629H215.721Z" stroke="white" strokeWidth="0.4" mask="url(#path-1-outside-1_1487_29305)"/>
<path d="M220.907 15.5616H219.836V8.95117H220.907V15.5616Z" stroke="white" strokeWidth="0.4" mask="url(#path-1-outside-1_1487_29305)"/>
<path d="M226.565 10.8051L225.456 13.5489H227.665L226.565 10.8051ZM228.059 14.4598H225.061L224.587 15.5618H223.445L226.383 8.8418H226.747L229.684 15.5618H228.533L228.059 14.4598Z" stroke="white" strokeWidth="0.4" mask="url(#path-1-outside-1_1487_29305)"/>
<path d="M237.452 8.95199V15.6726H237.087L233.031 11.0953V15.5624H231.961V8.8418H232.333L236.382 13.4094V8.95199H237.452Z" stroke="white" strokeWidth="0.4" mask="url(#path-1-outside-1_1487_29305)"/>
<path d="M187.875 24.9357H184.664V26.9088H187.308V27.8699H184.664V30.5942H183.594V23.9844H187.875V24.9357Z" stroke="white" strokeWidth="0.4" mask="url(#path-1-outside-1_1487_29305)"/>
<path d="M194.687 24.9338H192.25V26.6265H194.687V27.5478H192.25V29.6409H194.687V30.5922H191.18V23.9824H194.687V24.9338Z" stroke="white" strokeWidth="0.4" mask="url(#path-1-outside-1_1487_29305)"/>
<path d="M199.243 24.9442V29.6415H200.251C201.028 29.6415 201.644 29.4211 202.098 28.9804C202.552 28.5402 202.787 27.969 202.787 27.2779C202.787 26.5671 202.564 25.9959 202.108 25.5754C201.654 25.1542 201.038 24.9442 200.261 24.9442H199.243ZM200.271 23.9824C201.373 23.9824 202.251 24.2837 202.907 24.894C203.563 25.5056 203.896 26.2972 203.896 27.2779C203.896 28.2494 203.563 29.0403 202.898 29.6617C202.229 30.2825 201.351 30.5929 200.261 30.5929H198.172V23.9824H200.271Z" stroke="white" strokeWidth="0.4" mask="url(#path-1-outside-1_1487_29305)"/>
<path d="M210.497 24.9338H208.015V26.6265H210.497V27.5478H208.015V29.6409H210.497V30.5922H206.945V23.9824H210.497V24.9338Z" stroke="white" strokeWidth="0.4" mask="url(#path-1-outside-1_1487_29305)"/>
<path d="M215.008 27.0979H216.35C216.724 27.0979 217.015 26.9975 217.227 26.7973C217.439 26.5965 217.541 26.3363 217.541 26.0155C217.541 25.6849 217.439 25.4247 217.227 25.2252C217.015 25.0244 216.724 24.9246 216.35 24.9246H215.008V27.0979ZM218.128 30.5929L216.229 28.0388H215.008V30.5929H213.938V23.9824H216.369C217.048 23.9824 217.593 24.1735 218.005 24.5438C218.418 24.9142 218.63 25.4052 218.63 26.0057C218.63 26.4361 218.52 26.8169 218.298 27.1481C218.076 27.478 217.762 27.718 217.358 27.8686L219.358 30.5929H218.128Z" stroke="white" strokeWidth="0.4" mask="url(#path-1-outside-1_1487_29305)"/>
<path d="M223.877 25.8344L222.768 28.5782H224.978L223.877 25.8344ZM225.371 29.4891H222.373L221.9 30.5917H220.758L223.695 23.8711H224.059L226.997 30.5917H225.845L225.371 29.4891Z" stroke="white" strokeWidth="0.4" mask="url(#path-1-outside-1_1487_29305)"/>
<path d="M230.398 29.6409H233.447V30.5922H229.328V23.9824H230.398V29.6409Z" stroke="white" strokeWidth="0.4" mask="url(#path-1-outside-1_1487_29305)"/>
<path d="M188.961 43.0087C188.949 43.8694 188.706 44.5508 188.204 45.0515C187.698 45.5529 187.042 45.8027 186.243 45.8027C185.426 45.8027 184.77 45.5529 184.265 45.0515C183.76 44.5508 183.508 43.8694 183.508 43.0087V39.0723H184.579V43.0784C184.579 43.6398 184.738 44.0702 185.052 44.3701C185.365 44.6707 185.77 44.8214 186.265 44.8214C186.749 44.8214 187.143 44.6707 187.456 44.3701C187.77 44.0702 187.92 43.6398 187.92 43.0784V39.0723H188.99L188.961 43.0087Z" stroke="white" strokeWidth="0.4" mask="url(#path-1-outside-1_1487_29305)"/>
<path d="M198.171 39.1336V45.8536H197.806L193.75 41.2769V45.7441H192.68V39.0234H193.052L197.101 43.591V39.1336H198.171Z" stroke="white" strokeWidth="0.4" mask="url(#path-1-outside-1_1487_29305)"/>
<path d="M203.008 45.7432H201.938V39.1328H203.008V45.7432Z" stroke="white" strokeWidth="0.4" mask="url(#path-1-outside-1_1487_29305)"/>
<path d="M212.254 39.0781L209.317 45.7981H208.952L206.016 39.0781H207.216L209.135 43.6744L211.054 39.0781H212.254Z" stroke="white" strokeWidth="0.4" mask="url(#path-1-outside-1_1487_29305)"/>
<path d="M218.745 40.0842H216.234V41.7769H218.745V42.6982H216.234V44.7913H218.745V45.7426H215.164V39.1328H218.745V40.0842Z" stroke="white" strokeWidth="0.4" mask="url(#path-1-outside-1_1487_29305)"/>
<path d="M223.445 42.2485H224.787C225.161 42.2485 225.452 42.1481 225.665 41.9479C225.876 41.7471 225.978 41.4869 225.978 41.1661C225.978 40.8355 225.876 40.5754 225.665 40.3758C225.452 40.175 225.161 40.0752 224.787 40.0752H223.445V42.2485ZM226.564 45.7435L224.666 43.1894H223.445V45.7435H222.375V39.133H224.806C225.485 39.133 226.029 39.3241 226.442 39.6945C226.855 40.0648 227.068 40.5558 227.068 41.1563C227.068 41.5867 226.957 41.9668 226.735 42.2987C226.513 42.6287 226.199 42.8686 225.795 43.0192L227.795 45.7435H226.564Z" stroke="white" strokeWidth="0.4" mask="url(#path-1-outside-1_1487_29305)"/>
<path d="M232.451 38.9531C232.926 38.9531 233.348 39.0627 233.723 39.2831C234.095 39.5035 234.388 39.7845 234.601 40.1346L233.854 40.7058C233.501 40.1751 233.038 39.9045 232.46 39.9045C232.179 39.9045 231.935 39.9742 231.745 40.1151C231.553 40.2546 231.452 40.4548 231.452 40.7156C231.452 40.9458 231.523 41.116 231.664 41.2366C231.804 41.3566 232.046 41.5072 232.382 41.6572L233.126 41.9975C233.661 42.2388 234.066 42.5185 234.329 42.8087C234.591 43.0995 234.721 43.4594 234.721 43.8898C234.721 44.461 234.51 44.922 234.085 45.2721C233.661 45.6229 233.126 45.7931 232.48 45.7931C231.935 45.7931 231.442 45.664 231.008 45.4129C230.574 45.1619 230.231 44.8124 229.977 44.3605L230.734 43.7907C231.23 44.4916 231.814 44.8418 232.492 44.8418C232.835 44.8418 233.116 44.7622 233.329 44.592C233.54 44.4205 233.651 44.2001 233.651 43.9204C233.651 43.6902 233.582 43.5096 233.429 43.3799C233.279 43.2488 233.028 43.0995 232.672 42.9397L231.935 42.5981C231.442 42.3679 231.057 42.1273 230.786 41.8371C230.512 41.5476 230.382 41.1864 230.382 40.756C230.382 40.2253 230.583 39.7949 230.988 39.4643C231.39 39.1324 231.886 38.9629 232.48 38.9629L232.451 38.9531Z" stroke="white" strokeWidth="0.4" mask="url(#path-1-outside-1_1487_29305)"/>
<path d="M238.852 45.7432H237.781V39.1328H238.852V45.7432Z" stroke="white" strokeWidth="0.4" mask="url(#path-1-outside-1_1487_29305)"/>
<path d="M245.743 40.0842H244.292V45.7426H243.222V40.0842H241.781V39.1328H245.743V40.0842Z" stroke="white" strokeWidth="0.4" mask="url(#path-1-outside-1_1487_29305)"/>
<path d="M250.981 43.0692V45.7433H249.91V43.079L247.609 39.1328H248.801L250.446 42.0077L252.1 39.1328H253.282L250.981 43.0692Z" stroke="white" strokeWidth="0.4" mask="url(#path-1-outside-1_1487_29305)"/>
<path d="M171.628 45.8524H170.523V9.3418H171.628V45.8524Z" stroke="white" strokeWidth="0.4" mask="url(#path-1-outside-1_1487_29305)"/>
<path d="M43.9704 31.0074V22.8509C46.7865 22.3032 48.9114 19.842 48.9114 16.8878C48.9114 13.5319 46.1685 10.8113 42.7857 10.8113C41.1047 10.8113 39.5814 11.4831 38.475 12.5712L30.7544 7.79964C30.7826 7.56213 30.7972 7.32126 30.7972 7.07648C30.7972 3.72052 28.0549 1 24.6721 1C21.2892 1 18.5469 3.72052 18.5469 7.07648C18.5469 10.4324 21.2892 13.153 24.6721 13.153C26.948 13.153 28.9343 11.9212 29.99 10.0932L37.145 14.5155C36.8334 15.2442 36.6605 16.0462 36.6605 16.8878C36.6605 19.842 38.7854 22.3032 41.601 22.8509V31.0074C38.7854 31.5545 36.6605 34.0163 36.6605 36.9704C36.6605 40.3264 39.4034 43.0464 42.7857 43.0464C46.1685 43.0464 48.9114 40.3264 48.9114 36.9704C48.9114 34.0163 46.7865 31.5545 43.9704 31.0074Z" stroke="white" strokeWidth="0.4" mask="url(#path-1-outside-1_1487_29305)"/>
<path d="M30.8001 26.93C30.8001 23.5741 28.0577 20.8535 24.6749 20.8535C21.2926 20.8535 18.5497 23.5741 18.5497 26.93C18.5497 29.8836 20.6746 32.3426 23.4902 32.8903V40.9619C21.9804 41.2553 20.6696 42.0991 19.7783 43.2739L12.8932 39.0187C13.1242 38.3788 13.2498 37.6897 13.2498 36.971C13.2498 34.0175 11.1255 31.5557 8.30933 31.008V22.8515C11.1255 22.3043 13.2498 19.8426 13.2498 16.889C13.2498 13.5325 10.508 10.8125 7.12518 10.8125C3.74177 10.8125 1 13.5325 1 16.889C1 19.8426 3.12435 22.3043 5.94048 22.8515V31.008C3.12435 31.5557 1 34.0175 1 36.971C1 40.327 3.74177 43.0475 7.12518 43.0475C8.93294 43.0475 10.5582 42.2707 11.6792 41.0345L18.7441 45.4009C18.6173 45.8876 18.5497 46.3985 18.5497 46.9243C18.5497 50.2803 21.2926 53.0008 24.6749 53.0008C28.0577 53.0008 30.8001 50.2803 30.8001 46.9243C30.8001 43.9708 28.6757 41.509 25.8596 40.9619V32.8903C28.6752 32.3426 30.8001 29.8836 30.8001 26.93Z" stroke="white" strokeWidth="0.4" mask="url(#path-1-outside-1_1487_29305)"/>
<path d="M23.0726 52.5934C20.6623 51.8689 18.7809 49.2849 18.7809 46.6989C18.7809 45.2029 18.6946 45.1127 15.2641 43.0235C12.44 41.3035 11.6241 40.9715 11.1216 41.3378C8.33781 43.3673 5.2985 43.3174 3.17157 41.2073C0.0955596 38.1558 0.99498 33.1212 4.90572 31.5001L6.25238 30.9419V22.9941L4.55542 22.062C-0.124416 19.4914 0.345184 13.0848 5.34189 11.3324C9.64679 9.82273 14.1002 14.1075 12.7777 18.4866C12.2916 20.0963 9.93546 22.5331 8.86526 22.5331C8.38104 22.5331 8.27311 23.337 8.27311 26.9434C8.27311 30.5498 8.38104 31.3536 8.86526 31.3536C9.86451 31.3536 12.2386 33.7193 12.7341 35.2087C12.9919 35.9838 13.0958 37.1926 12.965 37.8949C12.7335 39.1366 12.8222 39.2301 16.1771 41.2827L19.6272 43.3937L20.9217 42.4446C21.6336 41.9226 22.5344 41.3843 22.9234 41.2484C23.5367 41.034 23.6281 40.4536 23.6118 36.879L23.5929 32.7569L21.9405 31.952C17.6948 29.8839 17.7545 24.0265 22.044 21.8088C24.1331 20.7287 26.2728 20.8582 28.1408 22.1778C31.6901 24.685 31.1744 30.4595 27.2554 32.0921L25.6596 32.7569L25.6514 40.91L27.1616 41.6446C30.1589 43.1027 31.3223 46.5555 29.8519 49.6294C28.7553 51.922 25.5301 53.3321 23.0726 52.5934Z" stroke="white" strokeWidth="0.4" mask="url(#path-1-outside-1_1487_29305)"/>
<path d="M40.3078 42.2154C35.8586 40.1613 35.7981 33.6591 40.211 31.8207L41.8068 31.1559L41.815 22.697L40.3853 22.1841C39.5039 21.8679 38.5545 21.07 37.9099 20.1037C37.0292 18.7835 36.8923 18.2016 37.0417 16.4141L37.2192 14.2919L30.0549 9.99484L28.9635 11.0042C27.3988 12.4513 26.3238 12.9135 24.5231 12.9135C20.2643 12.9135 17.3679 7.79668 19.5848 4.18955C22.4601 -0.488762 29.7823 0.869606 30.3872 6.19354C30.5828 7.91513 30.6472 7.98047 34.4162 10.2819L38.2465 12.6206L39.974 11.7647C42.1658 10.6788 43.2299 10.6878 45.4379 11.8109C49.7129 13.9857 49.7641 19.867 45.5259 21.9314L43.8735 22.7363L43.8358 31.1953L45.2383 31.6984C49.3101 33.1591 49.8072 39.4823 46.0321 41.7968C44.0554 43.0088 42.3037 43.1369 40.3078 42.2154Z" stroke="white" strokeWidth="0.4" mask="url(#path-1-outside-1_1487_29305)"/>
<path d="M6.03672 42.9183C3.14798 42.3748 1.05469 39.8984 1.05469 37.0246C1.05469 36.6187 1.10562 36.0407 1.16786 35.7402C1.48232 34.2223 2.45018 32.8092 3.77778 31.9297C4.3036 31.5813 5.22001 31.1694 5.39445 31.2031C5.45662 31.2151 5.31739 31.3006 5.08504 31.3931C3.24799 32.1244 1.97694 33.5382 1.4767 35.4066C1.26418 36.2003 1.26383 37.5163 1.47595 38.3125C1.9962 40.2653 3.43487 41.8953 5.20336 42.5356C6.93858 43.1638 8.88091 42.8368 10.7906 41.5949C11.0961 41.3962 11.3604 41.2479 11.378 41.2653C11.4479 41.3347 10.3439 42.1227 9.80652 42.3871C8.69463 42.9342 7.22298 43.1416 6.03672 42.9183Z" stroke="white" strokeWidth="0.4" mask="url(#path-1-outside-1_1487_29305)"/>
<path d="M6.23438 26.9709C6.23437 24.7879 6.24343 23.8846 6.25452 24.9636C6.26557 26.0426 6.26557 27.8286 6.25454 28.9326C6.24348 30.0366 6.23438 29.1538 6.23438 26.9709Z" stroke="white" strokeWidth="0.4" mask="url(#path-1-outside-1_1487_29305)"/>
<path d="M5.98438 26.9381C5.98438 23.3782 5.99701 22.9053 6.09154 22.9413C6.18504 22.9769 6.19871 23.4915 6.19871 26.9789C6.19871 30.4845 6.18552 30.9758 6.09154 30.9758C5.99754 30.9758 5.98438 30.4799 5.98438 26.9381Z" stroke="white" strokeWidth="0.4" mask="url(#path-1-outside-1_1487_29305)"/>
<path d="M41.922 42.9654C39.9383 42.6565 38.2191 41.4233 37.3569 39.691C36.8734 38.7195 36.7204 38.0694 36.7188 36.9788C36.7175 36.1595 36.774 35.7819 37.0024 35.0823C37.6246 33.1768 39.2773 31.6226 41.2078 31.1275L41.6432 31.0158V22.8431L41.2788 22.75C39.3079 22.2463 37.6617 20.7356 37.0212 18.8427C36.7733 18.11 36.7242 17.7871 36.7236 16.8821C36.723 16.1278 36.7382 15.9698 36.8558 15.5039C36.9288 15.2145 37.0233 14.8988 37.0658 14.8023L37.1431 14.6269L37.144 14.8273C37.1445 14.9376 37.1116 15.4112 37.0709 15.8798C36.9636 17.1143 36.9717 18.0017 37.0948 18.4791C37.3523 19.4779 38.3329 20.876 39.2603 21.5664C39.7414 21.9245 40.0836 22.0933 40.9795 22.4142L41.7695 22.6971V31.147L40.7844 31.5618C39.7343 32.0039 39.4267 32.1686 38.9318 32.5538C38.0778 33.2185 37.4297 34.2267 37.118 35.3751C36.936 36.0455 36.8894 37.2428 37.0185 37.9311C37.4281 40.1155 38.8185 41.728 40.9462 42.4863C41.7016 42.7555 42.2092 42.8338 43.0053 42.8039C43.9963 42.7667 44.7507 42.5441 45.7099 42.0059C47.0072 41.2781 47.8268 40.3067 48.2813 38.9585C49.0126 36.7892 48.5066 34.3051 47.032 32.8247C46.3992 32.1895 45.8854 31.8962 44.6111 31.4426L43.866 31.1774V28.6863C43.866 27.3161 43.881 25.417 43.8993 24.4659L43.9325 22.7367L44.9728 22.2221C46.0818 21.6736 46.4613 21.4339 46.9733 20.9587C48.0959 19.917 48.686 18.5277 48.6836 16.9322C48.6819 15.76 48.356 14.7081 47.69 13.7248C47.375 13.2596 46.6208 12.5227 46.1159 12.1868C45.3543 11.6802 44.2224 11.1831 43.4618 11.0212L43.1335 10.9513L43.566 10.9474C44.9289 10.9349 46.6655 11.923 47.7019 13.3007C49.4959 15.6857 49.2342 19.055 47.0904 21.1737C46.3573 21.8982 45.4416 22.4299 44.4517 22.7059L43.967 22.8411V26.9406C43.967 30.5366 43.9762 31.0401 44.0422 31.0401C44.2087 31.0401 45.13 31.3662 45.5331 31.5678C48.2808 32.9422 49.5735 36.1452 48.5362 39.0087C48.2355 39.8386 47.8254 40.4879 47.1871 41.1449C46.3281 42.029 45.4445 42.538 44.2239 42.8517C43.8406 42.9502 43.5818 42.9799 42.9819 42.9943C42.5651 43.0044 42.0882 42.9914 41.922 42.9654Z" stroke="white" strokeWidth="0.4" mask="url(#path-1-outside-1_1487_29305)"/>
<path d="M75.1932 8.83533C75.8097 8.83533 76.3644 8.97486 76.8699 9.24482C77.3753 9.51672 77.7677 9.88578 78.0608 10.3566L77.255 10.948C76.7594 10.187 76.0831 9.80689 75.2254 9.80689C74.5372 9.80689 73.9628 10.0364 73.5086 10.4981C73.0524 10.9577 72.8211 11.5387 72.8211 12.2397C72.8211 12.9413 73.0524 13.5216 73.5086 13.9826C73.9628 14.4442 74.5372 14.6738 75.2254 14.6738C76.0831 14.6738 76.7594 14.2936 77.255 13.5327L78.0608 14.1234C77.7782 14.5942 77.3852 14.9646 76.8797 15.2352C76.3743 15.5051 75.8195 15.6446 75.2037 15.6446C74.2237 15.6446 73.3982 15.3147 72.7199 14.664C72.0442 14.0132 71.7109 13.2008 71.7109 12.2299C71.7109 11.2681 72.054 10.4576 72.7323 9.7971C73.4074 9.13528 74.2342 8.80469 75.2155 8.80469L75.1932 8.83533Z" stroke="white" strokeWidth="0.4" mask="url(#path-1-outside-1_1487_29305)"/>
<path d="M88.2887 8.80469V15.5253H87.2187V10.978L83.068 15.6355H82.6953V8.91489H83.766V13.4518L87.9232 8.80469H88.2887Z" stroke="white" strokeWidth="0.4" mask="url(#path-1-outside-1_1487_29305)"/>
<path d="M94.8941 12.5298V14.5818H95.7268C96.1015 14.5818 96.3926 14.4931 96.5951 14.3118C96.7975 14.1325 96.8981 13.8815 96.8981 13.5704C96.8981 13.2614 96.7975 13.0103 96.5951 12.8193C96.3926 12.6302 96.112 12.5396 95.7367 12.5396L94.8941 12.5298ZM97.4456 9.86552H94.9046V11.628H95.828C96.484 11.628 97.0092 11.808 97.4035 12.1692C97.7959 12.5298 97.9984 13.0006 97.9984 13.5815C97.9984 14.1514 97.8084 14.6222 97.4134 14.9834C97.0184 15.344 96.4939 15.524 95.8379 15.524H93.8438V8.91419H97.4574L97.4456 9.86552Z" stroke="white" strokeWidth="0.4" mask="url(#path-1-outside-1_1487_29305)"/>
<path d="M108.468 8.79883V15.5188H107.398V10.9721L103.248 15.629H102.875V8.90902H103.945V13.4453L108.103 8.79883H108.468Z" stroke="white" strokeWidth="0.4" mask="url(#path-1-outside-1_1487_29305)"/>
<path d="M114.414 9.8068V11.9801H115.181C115.556 11.9801 115.847 11.8803 116.049 11.6795C116.252 11.4786 116.353 11.2185 116.353 10.8885C116.353 10.558 116.251 10.2971 116.049 10.097C115.847 9.89744 115.556 9.79702 115.181 9.79702L114.414 9.8068ZM115.201 8.85547C115.879 8.85547 116.424 9.04586 116.838 9.41688C117.25 9.78724 117.463 10.2782 117.463 10.8788C117.463 11.4786 117.25 11.9696 116.838 12.3511C116.424 12.7312 115.879 12.921 115.201 12.921H114.414V15.475H113.344V8.86525H115.201V8.85547Z" stroke="white" strokeWidth="0.4" mask="url(#path-1-outside-1_1487_29305)"/>
<path d="M124.654 8.83533C125.27 8.83533 125.825 8.97486 126.331 9.24482C126.836 9.51672 127.229 9.88578 127.522 10.3566L126.716 10.948C126.22 10.187 125.544 9.80689 124.686 9.80689C123.998 9.80689 123.424 10.0364 122.97 10.4981C122.513 10.9577 122.282 11.5387 122.282 12.2397C122.282 12.9413 122.513 13.5216 122.97 13.9826C123.424 14.4442 123.998 14.6738 124.686 14.6738C125.544 14.6738 126.22 14.2936 126.716 13.5327L127.522 14.1234C127.238 14.5942 126.846 14.9646 126.341 15.2352C125.835 15.5051 125.28 15.6446 124.664 15.6446C123.685 15.6446 122.859 15.3147 122.18 14.664C121.504 14.0132 121.172 13.2008 121.172 12.2299C121.172 11.2681 121.515 10.4576 122.193 9.7971C122.868 9.13528 123.695 8.80469 124.676 8.80469L124.654 8.83533Z" stroke="white" strokeWidth="0.4" mask="url(#path-1-outside-1_1487_29305)"/>
<path d="M147.453 8.80469V15.5253H146.382V10.978L142.232 15.6355H141.859V8.91489H142.93V13.4518L147.087 8.80469H147.453Z" stroke="white" strokeWidth="0.4" mask="url(#path-1-outside-1_1487_29305)"/>
<path d="M154.6 8.16267C154.123 8.16267 153.729 8.01269 153.428 7.70297C153.125 7.39195 152.972 7.00072 152.972 6.53125H153.83C153.83 6.78033 153.902 6.98116 154.042 7.13113C154.186 7.28175 154.375 7.35152 154.609 7.35152C154.841 7.35152 155.033 7.28176 155.174 7.13113C155.315 6.98116 155.386 6.78033 155.386 6.53125H156.245C156.245 7.00072 156.092 7.39195 155.791 7.70297C155.488 8.01269 155.093 8.16267 154.619 8.16267H154.6ZM157.507 8.80363V15.5243H156.437V10.9769L152.286 15.6338H151.914V8.91382H152.985V13.4508L157.142 8.80363H157.507Z" stroke="white" strokeWidth="0.4" mask="url(#path-1-outside-1_1487_29305)"/>
<path d="M75.9031 29.0442C76.5393 29.0442 77.0448 28.8838 77.4175 28.5636C77.7895 28.2428 77.982 27.8014 77.982 27.2315C77.982 26.6505 77.802 26.1986 77.4267 25.8785C77.0546 25.5577 76.5485 25.3979 75.913 25.3979V29.0539L75.9031 29.0442ZM72.7732 27.2413C72.7732 27.8124 72.9657 28.2526 73.3384 28.5727C73.7131 28.8935 74.2165 29.0539 74.8521 29.0539V25.3979C74.2165 25.3979 73.7131 25.5577 73.3384 25.8785C72.9657 26.1986 72.7837 26.6505 72.7837 27.2315L72.7732 27.2413ZM79.0817 27.2008C79.0817 28.0524 78.7911 28.7233 78.2035 29.2235C77.6192 29.7242 76.8621 29.9746 75.9222 29.9844V30.8764H74.8521V29.9844C73.9247 29.9747 73.1682 29.7144 72.5812 29.2143C71.9969 28.7136 71.7031 28.042 71.7031 27.2008C71.7031 26.359 71.9969 25.6985 72.5812 25.2082C73.1682 24.7178 73.9247 24.4668 74.862 24.457V23.625H75.9327V24.457C76.8719 24.4667 77.6291 24.7178 78.2141 25.2082C78.8003 25.6985 79.0935 26.359 79.0935 27.2008H79.0817Z" stroke="white" strokeWidth="0.4" mask="url(#path-1-outside-1_1487_29305)"/>
<path d="M106.914 24.8185V26.9918H107.601C107.976 26.9918 108.268 26.892 108.47 26.6912C108.672 26.4904 108.773 26.2302 108.773 25.8996C108.773 25.5697 108.672 25.3089 108.47 25.1087C108.268 24.9092 107.976 24.8087 107.601 24.8087L106.914 24.8185ZM107.621 23.8672C108.299 23.8672 108.844 24.0576 109.258 24.4279C109.67 24.799 109.883 25.2893 109.883 25.8905C109.883 26.4904 109.67 26.9814 109.258 27.3628C108.844 27.743 108.299 27.9327 107.621 27.9327H106.914V30.4868H105.844V23.877H107.621V23.8672Z" stroke="white" strokeWidth="0.4" mask="url(#path-1-outside-1_1487_29305)"/>
<path d="M114.135 25.7992L113.026 28.5431H115.235L114.135 25.7992ZM115.63 29.454H112.631L112.157 30.5566H111.016L113.953 23.8359H114.318L117.254 30.5566H116.103L115.63 29.454Z" stroke="white" strokeWidth="0.4" mask="url(#path-1-outside-1_1487_29305)"/>
<path d="M128.195 27.4499V29.7334H128.843C129.236 29.7334 129.539 29.6232 129.751 29.4132C129.962 29.2026 130.074 28.9229 130.074 28.5812C130.074 28.2415 129.962 27.9611 129.751 27.7505C129.539 27.5406 129.236 27.4304 128.843 27.4304L128.195 27.4499ZM128.195 26.4881H128.843C129.539 26.4881 130.103 26.6792 130.528 27.0698C130.952 27.4597 131.164 27.9611 131.164 28.5714C131.164 29.1928 130.952 29.693 130.528 30.0737C130.103 30.4539 129.539 30.6449 128.843 30.6449H127.125V24.0352H128.195V26.4881Z" stroke="white" strokeWidth="0.4" mask="url(#path-1-outside-1_1487_29305)"/>
<path d="M148.687 30.5649H147.617V23.9544H148.687V30.5649ZM143.75 27.3601V29.6442H144.473C144.865 29.6442 145.169 29.534 145.381 29.324C145.593 29.1134 145.704 28.833 145.704 28.492C145.704 28.1517 145.593 27.8719 145.381 27.6613C145.169 27.4507 144.865 27.3412 144.473 27.3412L143.75 27.3601ZM143.75 26.399H144.473C145.169 26.399 145.733 26.5894 146.157 26.9799C146.582 27.3699 146.794 27.8719 146.794 28.4822C146.794 29.1036 146.582 29.6038 146.157 29.9839C145.733 30.3647 145.169 30.5557 144.473 30.5557H142.68V23.9453H143.75V26.399Z" stroke="white" strokeWidth="0.4" mask="url(#path-1-outside-1_1487_29305)"/>
<path d="M154.6 23.1939C154.123 23.1939 153.729 23.0439 153.428 22.7342C153.125 22.4232 152.972 22.032 152.972 21.5625H153.83C153.83 21.8116 153.902 22.0124 154.042 22.163C154.186 22.313 154.375 22.3834 154.609 22.3834C154.841 22.3834 155.033 22.313 155.174 22.163C155.315 22.0124 155.386 21.8116 155.386 21.5625H156.245C156.245 22.032 156.092 22.4232 155.791 22.7342C155.488 23.044 155.093 23.1939 154.619 23.1939H154.6ZM157.507 23.8349V30.5555H156.437V26.0088L152.286 30.6651H151.914V23.9451H152.985V28.482L157.142 23.8349H157.507Z" stroke="white" strokeWidth="0.4" mask="url(#path-1-outside-1_1487_29305)"/>
<path d="M77.7548 38.9766L75.4438 44.2953C75.0396 45.2258 74.3324 45.6966 73.3333 45.6966C73.0619 45.6966 72.7786 45.6672 72.4848 45.5968V44.6754C72.8896 44.7061 73.1013 44.7257 73.121 44.7257C73.7382 44.7257 74.1621 44.4753 74.3941 43.9745L72.0312 38.9766H73.2617L74.9686 42.793L76.5349 38.9766L77.7548 38.9766Z" stroke="white" strokeWidth="0.4" mask="url(#path-1-outside-1_1487_29305)"/>
<path d="M86.5228 45.587H85.4521V42.5622H82.1006V45.587H81.0312V38.9766H82.1006V41.6115H85.4521V38.9766H86.5228V45.587Z" stroke="white" strokeWidth="0.4" mask="url(#path-1-outside-1_1487_29305)"/>
<path d="M96.2099 38.8652V45.5859H95.1399V41.0385L90.9899 45.6954H90.6172V38.9754H91.6872V43.5124L95.8451 38.8652H96.2099Z" stroke="white" strokeWidth="0.4" mask="url(#path-1-outside-1_1487_29305)"/>
<path d="M102.185 44.5875C102.56 44.5875 102.853 44.4969 103.053 44.3169C103.256 44.1363 103.356 43.8853 103.356 43.5762C103.356 43.2652 103.255 43.0141 103.053 42.825C102.853 42.634 102.57 42.5433 102.195 42.5433H101.306V44.5973H102.195L102.185 44.5875ZM101.306 39.8497V41.6324H101.662C101.996 41.6324 102.247 41.5529 102.429 41.3925C102.609 41.2321 102.7 41.0123 102.7 40.7417C102.7 40.4718 102.609 40.2501 102.429 40.0897C102.247 39.9293 101.996 39.8497 101.662 39.8497H101.306ZM103.196 41.9233C103.588 42.053 103.901 42.2636 104.123 42.5531C104.345 42.8446 104.456 43.1941 104.456 43.6055C104.456 44.1663 104.257 44.6266 103.862 44.9872C103.467 45.3484 102.942 45.5284 102.296 45.5284H100.266V38.918H101.773C102.368 38.918 102.853 39.0784 103.215 39.4096C103.578 39.7395 103.76 40.1608 103.76 40.6804C103.76 41.1917 103.568 41.6024 103.196 41.9122V41.9233Z" stroke="white" strokeWidth="0.4" mask="url(#path-1-outside-1_1487_29305)"/>
<path d="M116.5 39.7561V41.9294H117.214C117.588 41.9294 117.879 41.8296 118.081 41.6288C118.284 41.4279 118.385 41.1678 118.385 40.8378C118.385 40.5072 118.284 40.2464 118.081 40.0462C117.879 39.8467 117.588 39.7463 117.214 39.7463L116.5 39.7561ZM117.233 38.8048C117.911 38.8048 118.456 38.9952 118.87 39.3662C119.283 39.7365 119.495 40.2269 119.495 40.8281C119.495 41.4279 119.283 41.9189 118.87 42.3004C118.456 42.6812 117.911 42.8703 117.233 42.8703H116.5V45.4243H115.43V38.8145H117.233V38.8048Z" stroke="white" strokeWidth="0.4" mask="url(#path-1-outside-1_1487_29305)"/>
<path d="M125.232 38.8353C125.848 38.8353 126.403 38.9749 126.909 39.2448C127.414 39.5161 127.807 39.8858 128.1 40.3566L127.291 40.948C126.798 40.187 126.122 39.8062 125.264 39.8062C124.576 39.8062 124.002 40.0364 123.548 40.4974C123.094 40.9571 122.86 41.5387 122.86 42.2397C122.86 42.9413 123.094 43.5216 123.548 43.9826C124.002 44.4436 124.576 44.6737 125.264 44.6737C126.122 44.6737 126.798 44.293 127.291 43.5327L128.1 44.1234C127.817 44.5942 127.424 44.9646 126.919 45.2352C126.413 45.5051 125.859 45.6446 125.242 45.6446C124.263 45.6446 123.437 45.3147 122.758 44.6633C122.083 44.0132 121.75 43.2008 121.75 42.2299C121.75 41.2681 122.093 40.457 122.769 39.7964C123.446 39.1346 124.273 38.8047 125.255 38.8047L125.232 38.8353Z" stroke="white" strokeWidth="0.4" mask="url(#path-1-outside-1_1487_29305)"/>
<path d="M136.718 38.8633V45.5839H135.648V41.0365L131.498 45.6935H131.125V38.9735H132.195V43.5104L136.353 38.8633H136.718Z" stroke="white" strokeWidth="0.4" mask="url(#path-1-outside-1_1487_29305)"/>
<path d="M143.694 39.9279H142.243V45.5863H141.172V39.9279H139.734V38.9766H143.694V39.9279Z" stroke="white" strokeWidth="0.4" mask="url(#path-1-outside-1_1487_29305)"/>
<path d="M157.509 39.9279H156.058V45.5863H154.988V39.9279H153.547V38.9766H157.509V39.9279Z" stroke="white" strokeWidth="0.4" mask="url(#path-1-outside-1_1487_29305)"/>
<path d="M85.9183 29.5081H83.5225V27.4156H85.9183V26.4943H83.5225V24.8009H85.9183V23.8496H82.4531V30.4594H85.9183V29.5081Z" stroke="white" strokeWidth="0.4" mask="url(#path-1-outside-1_1487_29305)"/>
<path d="M102.356 29.6038H99.7732V27.5107H102.267V26.59H99.7732V24.8973H102.356V23.9453H98.7031V30.5551H102.356V29.6038Z" stroke="white" strokeWidth="0.4" mask="url(#path-1-outside-1_1487_29305)"/>
<path d="M111.474 44.5784H108.929V42.4853H111.423V41.564H108.929V39.8713H111.474V38.9199H107.859V45.5297H111.474V44.5784Z" stroke="white" strokeWidth="0.4" mask="url(#path-1-outside-1_1487_29305)"/>
<path d="M150.636 44.635H148.148V42.5419H150.636V41.6206H148.148V39.9279H150.636V38.9766H147.078V45.5863H150.636V44.635Z" stroke="white" strokeWidth="0.4" mask="url(#path-1-outside-1_1487_29305)"/>
<path d="M137.562 15.5245H136.239L133.149 12.0087L135.946 8.91406H137.258L134.491 12.0087L137.562 15.5245ZM131.82 8.91406H132.89V15.5245H131.82V8.91406Z" stroke="white" strokeWidth="0.4" mask="url(#path-1-outside-1_1487_29305)"/>
<path d="M133.718 12.4675H132.188V11.5898H133.718V12.4675Z" stroke="white" strokeWidth="0.4" mask="url(#path-1-outside-1_1487_29305)"/>
<path d="M139.46 30.6456H138.39V27.6208H135.039V30.6456H133.969V24.0352H135.039V26.6701H138.39V24.0352H139.46V30.6456Z" stroke="white" strokeWidth="0.4" mask="url(#path-1-outside-1_1487_29305)"/>
<path d="M90.4596 29.5081H93.4837V24.7925H91.6828C91.663 27.0303 91.2588 28.605 90.4596 29.5081ZM95.395 29.5081V31.8756H94.323V30.4613H89.822V31.8756H88.75V29.5081H89.266C89.7208 29.1168 90.0652 28.5554 90.3077 27.8232C90.5509 27.0903 90.6719 26.0763 90.6719 24.7925V23.8496H94.5656V29.5185L95.395 29.5081Z" stroke="white" strokeWidth="0.4" mask="url(#path-1-outside-1_1487_29305)"/>
<path d="M124.045 24.0202V30.598H122.978V24.9683H121.026C121.015 25.9966 120.945 26.8749 120.814 27.6039C120.684 28.3322 120.493 28.9008 120.241 29.3207C119.99 29.74 119.707 30.049 119.396 30.2492C119.084 30.4481 118.712 30.5785 118.289 30.6287V29.6402C118.863 29.5202 119.285 29.101 119.557 28.3817C119.829 27.6632 119.97 26.5651 119.97 25.0785V24L124.045 24.0202Z" stroke="white" strokeWidth="0.4" mask="url(#path-1-outside-1_1487_29305)"/>
<path d="M72.6161 45.5684C72.5798 45.5238 72.5391 45.3087 72.5256 45.0903L72.5011 44.6932L72.8931 44.7315C73.4091 44.782 73.8545 44.6579 74.107 44.3933C74.468 44.0151 74.5203 44.1935 73.2692 41.5391C72.6405 40.2052 72.1256 39.0931 72.125 39.0678C72.1244 39.0425 72.3798 39.0294 72.6926 39.0386L73.2612 39.0553L74.0822 40.8972C74.5338 41.9102 74.9211 42.7574 74.9429 42.7798C74.9647 42.8021 75.3293 41.9733 75.7531 40.9379L76.5235 39.0553L77.094 39.0386C77.4077 39.0294 77.6644 39.0394 77.6644 39.0609C77.6644 39.1422 75.6353 43.7556 75.3614 44.2972C75.0459 44.9208 74.7794 45.219 74.3391 45.4409C74.0959 45.5634 73.9389 45.592 73.3657 45.6182C72.8251 45.6429 72.6683 45.6326 72.6161 45.5684Z" stroke="white" strokeWidth="0.4" mask="url(#path-1-outside-1_1487_29305)"/>
<path d="M81.0859 39.0273H82.088V41.6604L85.4771 41.6294L85.5088 39.0273H86.5086V45.5763H85.5066V42.5357H82.0954L82.077 43.9998C82.0615 45.2236 82.044 45.4729 81.9701 45.5192C81.9214 45.5496 81.7026 45.575 81.4838 45.5754L81.0859 45.5763V39.0273Z" stroke="white" strokeWidth="0.4" mask="url(#path-1-outside-1_1487_29305)"/>
<path d="M90.7058 45.6197C90.6797 45.5797 90.6508 44.0799 90.6416 42.287L90.625 39.0271H91.6308V41.2456C91.6308 42.4658 91.6508 43.4764 91.6752 43.4914C91.6996 43.5063 92.5683 42.5709 93.6055 41.4124C95.5393 39.2528 95.8757 38.9102 96.062 38.9102C96.1645 38.9102 96.1693 39.059 96.1693 42.2431V45.5761H95.1673L95.1641 40.986L94.9446 41.2215C94.8238 41.351 93.9094 42.37 92.9125 43.4858C91.1649 45.442 90.8124 45.7831 90.7058 45.6197Z" stroke="white" strokeWidth="0.4" mask="url(#path-1-outside-1_1487_29305)"/>
</svg>
